<?xml version="1.0" encoding="UTF-8" standalone="no"?>
<!DOCTYPE svg  PUBLIC '-//W3C//DTD SVG 1.1//EN'  'http://www.w3.org/Graphics/SVG/1.1/DTD/svg11.dtd'>
<svg xmlns="http://www.w3.org/2000/svg">
<defs>
<font id="Interstate-Light" horiz-adv-x="728">
<font-face underline-position="-113" font-weight="300" descent="-200" panose-1="2 0 5 6 3 0 0 2 0 4" units-per-em="1000" unicode-range="U+0020-25CA" bbox="-52 -193 1300 914" x-height="525" underline-thickness="20" font-family="Interstate" ascent="800" cap-height="700"/>
<missing-glyph horiz-adv-x="1000"/>
<glyph glyph-name=".notdef" horiz-adv-x="1000"/>
<glyph glyph-name=".null" horiz-adv-x="0"/>
<glyph glyph-name="nonmarkingreturn" horiz-adv-x="333"/>
<glyph glyph-name="space" horiz-adv-x="260" unicode=" "/>
<glyph glyph-name="space" horiz-adv-x="260" unicode=" "/>
<glyph glyph-name="exclam" horiz-adv-x="263" unicode="!" d="M192 50q0 -25 -18.5 -43t-42.5 -18q-25 0 -43 18t-18 43t18 44t43 19q24 0 42.5 -19t18.5 -44zM170 371l-18 -183h-42l-17 183v329h77v-329z"/>
<glyph glyph-name="quotedbl" horiz-adv-x="460" unicode='&quot;' d="M177 700l-17 -327h-59l-17 327h93zM376 700l-17 -327h-59l-17 327h93z"/>
<glyph glyph-name="numbersign" horiz-adv-x="672" unicode="#" d="M425 246v208h-178v-208h178zM620 176h-120v-176h-75v176h-178v-176h-75v176h-120v70h120v208h-120v70h120v176h75v-176h178v176h75v-176h120v-70h-120v-208h120v-70z"/>
<glyph glyph-name="dollar" horiz-adv-x="582" unicode="$" d="M517 189q0 -76 -51.5 -127t-142.5 -61v-101h-75v101q-118 13 -198 95l52 58q87 -84 186 -84q71 0 111 30t40 85q0 48 -35 78t-132 65q-115 41 -158.5 82.5t-43.5 116.5q0 74 47.5 118.5t130.5 53.5v101h75v-100q95 -8 179 -74l-50 -61q-79 65 -168 65q-69 0 -102.5 -27 t-33.5 -71q0 -45 32 -72.5t134 -63.5q117 -42 160 -85.5t43 -121.5z"/>
<glyph glyph-name="percent" horiz-adv-x="963" unicode="%" d="M834 205q0 70 -25.5 114.5t-68.5 44.5t-68 -43.5t-25 -113.5t25.5 -114t68.5 -44q42 0 67.5 45.5t25.5 110.5zM316 492q0 70 -25.5 114.5t-68.5 44.5t-68 -43.5t-25 -113.5t25.5 -114t68.5 -44q42 0 67.5 45.5t25.5 110.5zM903 207q0 -96 -45.5 -157t-118.5 -61 t-117 59.5t-44 156.5q0 98 44.5 158.5t118.5 60.5q75 0 118.5 -59.5t43.5 -157.5zM735 700l-435 -700h-73l435 700h73zM385 494q0 -96 -45.5 -157t-118.5 -61t-117 59.5t-44 156.5q0 98 44.5 158.5t118.5 60.5q75 0 118.5 -59.5t43.5 -157.5z"/>
<glyph glyph-name="ampersand" horiz-adv-x="644" unicode="&amp;" d="M420 125l-162 212q-122 -56 -122 -158q0 -53 36.5 -87.5t101.5 -34.5q86 0 146 68zM609 0h-92l-56 73q-82 -84 -189 -84q-109 0 -160 52.5t-51 135.5q0 74 39 122.5t118 88.5l-24 32q-31 41 -46.5 72t-15.5 68q0 67 48.5 109t129.5 42q107 0 186 -63l-40 -62 q-72 57 -147 57q-46 0 -73 -21.5t-27 -57.5q0 -44 42 -98l213 -277q24 44 48 123l66 -20q-24 -89 -70 -160z"/>
<glyph glyph-name="quotesingle" horiz-adv-x="257" unicode="&apos;" d="M176 700l-17 -327h-61l-17 327h95z"/>
<glyph glyph-name="parenleft" horiz-adv-x="348" unicode="(" d="M299 -79l-33 -31q-203 185 -203 410q0 231 203 416l33 -31q-159 -164 -159 -380q0 -220 159 -384z"/>
<glyph glyph-name="parenright" horiz-adv-x="348" unicode=")" d="M285 306q0 -231 -203 -416l-33 31q159 164 159 380q0 220 -159 384l33 31q203 -185 203 -410z"/>
<glyph glyph-name="asterisk" horiz-adv-x="500" unicode="*" d="M428 445l-31 -54l-133 99l17 -166h-62l17 166l-133 -99l-31 54l148 67l-148 67l31 54l133 -99l-17 166h62l-17 -166l133 99l31 -54l-148 -67z"/>
<glyph glyph-name="plus" horiz-adv-x="577" unicode="+" d="M522 310h-197v-203h-73v203h-197v68h197v203h73v-203h197v-68z"/>
<glyph glyph-name="comma" horiz-adv-x="240" unicode="," d="M177 115l-65 -233h-52l15 233h102z"/>
<glyph glyph-name="hyphen" horiz-adv-x="322" unicode="-" d="M271 329h-220v73h220v-73z"/>
<glyph glyph-name="hyphen" horiz-adv-x="322" unicode="­" d="M271 329h-220v73h220v-73z"/>
<glyph glyph-name="period" horiz-adv-x="240" unicode="." d="M184 53q0 -26 -19 -45t-45 -19t-45 19t-19 45t19 46t45 20q25 0 44.5 -20t19.5 -46z"/>
<glyph glyph-name="slash" horiz-adv-x="425" unicode="/" d="M399 790l-299 -880h-74l299 880h74z"/>
<glyph glyph-name="zero" horiz-adv-x="642" unicode="0" d="M506 350q0 137 -47.5 214t-137.5 77t-137.5 -77t-47.5 -214t47.5 -214t137.5 -77t137.5 77t47.5 214zM583 350q0 -171 -71.5 -266t-190.5 -95t-190.5 95t-71.5 266t71.5 266t190.5 95t190.5 -95t71.5 -266z"/>
<glyph glyph-name="one" horiz-adv-x="312" unicode="1" d="M219 0h-77v560h-127v49q130 8 145 91h59v-700z"/>
<glyph glyph-name="two" horiz-adv-x="569" unicode="2" d="M499 0h-460q3 65 19 114.5t48 90t66.5 69.5t91.5 68q92 63 121.5 98.5t29.5 83.5q0 55 -37.5 86t-105.5 31q-95 0 -170 -65l-45 57q48 39 97.5 58.5t120.5 19.5q98 0 157.5 -46.5t59.5 -136.5q0 -51 -19 -88.5t-52 -66.5t-104 -78q-103 -70 -141 -116t-48 -105h371v-74z "/>
<glyph glyph-name="three" horiz-adv-x="563" unicode="3" d="M498 201q0 -99 -66.5 -155.5t-182.5 -56.5q-63 0 -122 28t-95 69l52 52q74 -79 169 -79q168 0 168 140q0 64 -45 98t-121 34h-46v67h48q66 0 100.5 33.5t34.5 90.5q0 119 -144 119q-80 0 -141 -64l-49 50q80 84 192 84q97 0 158 -46t61 -133q0 -113 -99 -164 q56 -12 92 -53.5t36 -113.5z"/>
<glyph glyph-name="four" horiz-adv-x="625" unicode="4" d="M413 233v374q-38 -54 -99 -132l-95 -123q-70 -90 -95 -119h289zM581 166h-96v-166h-72v166h-374v65l362 469h84v-467h96v-67z"/>
<glyph glyph-name="five" horiz-adv-x="605" unicode="5" d="M542 233q0 -122 -71 -183t-192 -61q-123 0 -221 64l38 62q88 -56 189 -56q88 0 134 46t46 123q0 69 -43 108t-124 39t-146 -45l-77 30l24 340h401v-74h-334l-17 -225q64 44 154 44q117 0 178 -57.5t61 -154.5z"/>
<glyph glyph-name="six" horiz-adv-x="614" unicode="6" d="M493 212q0 70 -46 109t-129 39t-131.5 -40.5t-48.5 -107.5q0 -66 49 -109.5t128 -43.5q85 0 131.5 42t46.5 111zM570 216q0 -109 -72 -168t-186 -59q-113 0 -182 67t-69 209q0 58 12 115t42.5 115.5t75 103.5t116 76t159.5 36v-69q-275 -24 -330 -294q77 82 202 82 q102 0 167 -55t65 -159z"/>
<glyph glyph-name="seven" horiz-adv-x="556" unicode="7" d="M476 627q-227 -280 -233 -627h-79q9 339 227 626h-375v74h460v-73z"/>
<glyph glyph-name="eight" horiz-adv-x="636" unicode="8" d="M501 194q0 63 -49 102.5t-135 39.5t-134 -38.5t-48 -101.5t47 -100t137 -37t136 36t46 99zM471 523q0 50 -38 84t-116 34t-115 -33.5t-37 -82.5q0 -52 41.5 -85.5t112.5 -33.5q68 0 110 33.5t42 83.5zM578 196q0 -100 -69.5 -153.5t-191.5 -53.5t-190.5 52.5t-68.5 152.5 q0 135 139 181q-109 43 -109 148q0 84 61 136t170 52t169 -51t60 -135q0 -102 -109 -148q139 -46 139 -181z"/>
<glyph glyph-name="nine" horiz-adv-x="614" unicode="9" d="M476 488q0 66 -49 109.5t-128 43.5q-85 0 -131.5 -42t-46.5 -111q0 -70 46 -109t129 -39t131.5 40.5t48.5 107.5zM553 435q0 -58 -12 -115t-42.5 -115.5t-75 -103.5t-116 -76t-159.5 -36v69q275 24 330 294q-77 -82 -202 -82q-102 0 -167 55t-65 159q0 109 72 168t186 59 q113 0 182 -67t69 -209z"/>
<glyph glyph-name="colon" horiz-adv-x="240" unicode=":" d="M184 53q0 -26 -19 -45t-45 -19t-45 19t-19 45t19 46t45 20q25 0 44.5 -20t19.5 -46zM184 470q0 -26 -19 -45t-45 -19t-45 19t-19 45t19 46t45 20q25 0 44.5 -20t19.5 -46z"/>
<glyph glyph-name="semicolon" horiz-adv-x="240" unicode=";" d="M170 115l-65 -233h-52l15 233h102zM184 470q0 -26 -19 -45t-45 -19t-45 19t-19 45t19 46t45 20q25 0 44.5 -20t19.5 -46z"/>
<glyph glyph-name="less" horiz-adv-x="385" unicode="&lt;" d="M316 62l-259 248v68l259 248v-93l-200 -188l200 -188v-95z"/>
<glyph glyph-name="equal" horiz-adv-x="577" unicode="=" d="M497 200h-417v70h417v-70zM497 418h-417v70h417v-70z"/>
<glyph glyph-name="greater" horiz-adv-x="385" unicode="&gt;" d="M328 310l-259 -248v93l200 188l-200 188v95l259 -248v-68z"/>
<glyph glyph-name="question" horiz-adv-x="561" unicode="?" d="M315 50q0 -25 -18.5 -43t-42.5 -18q-25 0 -43 18t-18 43t18 44t43 19q24 0 42.5 -19t18.5 -44zM494 539q0 -67 -28.5 -103.5t-95.5 -77.5q-50 -30 -63 -60t-13 -110h-77q0 102 20 141.5t98 87.5q43 26 62 51t19 65q0 48 -39 77.5t-102 29.5q-98 0 -181 -77l-50 55 q95 93 234 93q98 0 157 -44.5t59 -127.5z"/>
<glyph glyph-name="at" horiz-adv-x="836" unicode="@" d="M514 262v81q-48 29 -116 29q-45 0 -73 -22.5t-28 -57.5q0 -90 102 -90q35 0 66 16.5t49 43.5zM779 360q0 -208 -148 -208q-36 0 -64.5 17.5t-42.5 45.5q-50 -63 -130 -63q-68 0 -110.5 35t-42.5 102q0 62 45.5 96.5t116.5 34.5q66 0 111 -27v59q0 64 -103 64 q-52 0 -102 -24l-22 43q62 31 131 31q148 0 148 -111v-193q0 -29 17.5 -47t53.5 -18q92 0 92 162q0 135 -88 220t-223 85q-136 0 -223.5 -86t-87.5 -226q0 -141 87.5 -228.5t223.5 -87.5q74 0 136 31l18 -44q-75 -34 -154 -34q-157 0 -259 102t-102 259t102 259t259 102 t259 -102.5t102 -248.5z"/>
<glyph glyph-name="A" horiz-adv-x="678" unicode="A" d="M459 249l-77 230q-32 91 -43 138q-12 -47 -44 -140l-77 -228h241zM625 0h-82l-60 178h-289l-61 -178h-80l243 700h86z"/>
<glyph glyph-name="B" horiz-adv-x="626" unicode="B" d="M493 203q0 65 -40 101.5t-109 36.5h-174v-270h178q145 0 145 132zM460 522q0 50 -29 78.5t-86 28.5h-175v-218h169q62 0 91.5 31t29.5 80zM571 207q0 -103 -58.5 -155t-169.5 -52h-251v700h256q87 0 138.5 -44t51.5 -131q0 -107 -101 -143q134 -36 134 -175z"/>
<glyph glyph-name="C" horiz-adv-x="628" unicode="C" d="M574 105q-86 -116 -229 -116q-127 0 -205 102t-78 258q0 157 80 259.5t206 102.5q142 0 223 -112l-62 -47q-35 47 -71.5 67.5t-91.5 20.5q-90 0 -148 -81t-58 -208t59 -209t148 -82q102 0 173 92z"/>
<glyph glyph-name="D" horiz-adv-x="658" unicode="D" d="M518 352q0 135 -63.5 206t-183.5 71h-101v-558h103q245 0 245 281zM596 355q0 -181 -91.5 -268t-241.5 -87h-171v700h185q145 0 232 -86t87 -259z"/>
<glyph glyph-name="E" horiz-adv-x="587" unicode="E" d="M530 0h-438v700h423v-71h-345v-220h200v-71h-200v-267h360v-71z"/>
<glyph glyph-name="F" horiz-adv-x="548" unicode="F" d="M503 629h-333v-232h192v-71h-192v-326h-78v700h411v-71z"/>
<glyph glyph-name="G" horiz-adv-x="659" unicode="G" d="M604 279q0 -140 -71.5 -215t-187.5 -75q-127 0 -205 102t-78 258q0 157 80 259.5t206 102.5q142 0 223 -112l-62 -47q-35 47 -71.5 67.5t-91.5 20.5q-90 0 -148 -81t-58 -208t59 -209t148 -82q88 0 134.5 53.5t46.5 155.5v6h-126v72h202v-68z"/>
<glyph glyph-name="H" horiz-adv-x="688" unicode="H" d="M596 0h-78v330h-348v-330h-78v700h78v-299h348v299h78v-700z"/>
<glyph glyph-name="I" horiz-adv-x="272" unicode="I" d="M175 0h-78v700h78v-700z"/>
<glyph glyph-name="J" horiz-adv-x="578" unicode="J" d="M491 268q0 -279 -239 -279q-165 0 -222 169l74 25q23 -61 57.5 -92t93.5 -31q84 0 121 50t37 161v429h78v-432z"/>
<glyph glyph-name="K" horiz-adv-x="642" unicode="K" d="M599 0h-89l-207 373l-133 -172v-201h-78v700h78v-399q37 53 102 137l203 262h85l-205 -263z"/>
<glyph glyph-name="L" horiz-adv-x="575" unicode="L" d="M516 0h-424v700h78v-629h346v-71z"/>
<glyph glyph-name="M" horiz-adv-x="788" unicode="M" d="M696 0h-75v549q-9 -34 -42 -116l-187 -451l-184 451q-29 69 -41 116v-549h-75v700h87l165 -419q39 -97 50 -136q10 34 50 136l167 419h85v-700z"/>
<glyph glyph-name="N" horiz-adv-x="688" unicode="N" d="M596 0h-73l-306 479q-30 48 -50 88v-567h-75v700h76l303 -488q30 -48 50 -88v576h75v-700z"/>
<glyph glyph-name="O" horiz-adv-x="705" unicode="O" d="M565 349q0 130 -61 210.5t-154 80.5q-92 0 -151 -79.5t-59 -209.5t60.5 -210.5t153.5 -80.5q92 0 151.5 79.5t59.5 209.5zM643 351q0 -159 -81 -260.5t-211 -101.5t-209.5 100.5t-79.5 259.5t80.5 260.5t210.5 101.5t210 -100.5t80 -259.5z"/>
<glyph glyph-name="P" horiz-adv-x="618" unicode="P" d="M499 488q0 68 -38 104.5t-110 36.5h-181v-283h171q158 0 158 142zM577 491q0 -102 -65 -159t-172 -57h-170v-275h-78v700h262q100 0 161.5 -53.5t61.5 -155.5z"/>
<glyph glyph-name="Q" horiz-adv-x="705" unicode="Q" d="M565 349q0 130 -61 210.5t-154 80.5q-92 0 -151 -79.5t-59 -209.5t60.5 -210.5t153.5 -80.5q36 0 66 12l-57 93l64 38l56 -92q82 79 82 238zM643 351q0 -96 -32.5 -174.5t-90.5 -126.5l45 -73l-64 -38l-44 72q-50 -22 -106 -22q-130 0 -209.5 100.5t-79.5 259.5 t80.5 260.5t210.5 101.5t210 -100.5t80 -259.5z"/>
<glyph glyph-name="R" horiz-adv-x="650" unicode="R" d="M509 499q0 130 -143 130h-196v-261h186q153 0 153 131zM587 502q0 -80 -44 -131t-121 -67l154 -304h-90l-150 298h-166v-298h-78v700h277q97 0 157.5 -50.5t60.5 -147.5z"/>
<glyph glyph-name="S" horiz-adv-x="592" unicode="S" d="M522 184q0 -85 -62.5 -140t-169.5 -55q-69 0 -130.5 26.5t-104.5 70.5l52 58q87 -84 186 -84q70 0 110.5 32.5t40.5 87.5q0 49 -36 81.5t-131 66.5q-114 41 -158 85t-44 119q0 83 60 131t159 48q119 0 213 -75l-50 -61q-79 65 -168 65q-68 0 -102 -29t-34 -74 q0 -46 32.5 -75.5t133.5 -65.5q116 -42 159.5 -88t43.5 -124z"/>
<glyph glyph-name="T" horiz-adv-x="588" unicode="T" d="M539 629h-206v-629h-78v629h-206v71h490v-71z"/>
<glyph glyph-name="U" horiz-adv-x="678" unicode="U" d="M591 286q0 -297 -251 -297q-125 0 -189 74.5t-64 220.5v416h78v-414q0 -226 179 -226q89 0 129 54.5t40 169.5v416h78v-414z"/>
<glyph glyph-name="V" horiz-adv-x="668" unicode="V" d="M615 700l-238 -700h-86l-238 700h82l156 -479q27 -82 43 -138q3 11 44 140l157 477h80z"/>
<glyph glyph-name="W" horiz-adv-x="856" unicode="W" d="M799 700l-140 -700h-88l-110 448q-21 87 -34 158q-10 -51 -34 -158l-110 -448h-86l-140 700h78l82 -450q4 -23 13.5 -81t12.5 -75q12 68 33 154l111 452h84l111 -452q21 -86 33 -154q3 17 12.5 75t13.5 81l82 450h76z"/>
<glyph glyph-name="X" horiz-adv-x="632" unicode="X" d="M575 0h-88l-107 183q-48 83 -64 116q-38 -72 -64 -116l-109 -183h-86l218 364l-200 336h88l90 -153q26 -44 64 -116q16 33 64 116l90 153h86l-200 -334z"/>
<glyph glyph-name="Y" horiz-adv-x="652" unicode="Y" d="M605 700l-240 -422v-278h-78v277l-240 423h89l112 -201q52 -95 79 -150q34 69 79 150l112 201h87z"/>
<glyph glyph-name="Z" horiz-adv-x="628" unicode="Z" d="M561 0h-500v68l331 451q37 51 85 113h-396v68h480v-68l-331 -451q-37 -51 -85 -113h416v-68z"/>
<glyph glyph-name="bracketleft" horiz-adv-x="352" unicode="[" d="M289 -110h-194v810h194v-61h-121v-688h121v-61z"/>
<glyph glyph-name="backslash" horiz-adv-x="425" unicode="\" d="M399 -90h-74l-299 880h74z"/>
<glyph glyph-name="bracketright" horiz-adv-x="352" unicode="]" d="M257 -110h-194v61h121v688h-121v61h194v-810z"/>
<glyph glyph-name="asciicircum" horiz-adv-x="558" unicode="^" d="M511 382h-86l-147 236l-147 -236h-84l204 318h56z"/>
<glyph glyph-name="underscore" horiz-adv-x="500" unicode="_" d="M500 -153h-500v63h500v-63z"/>
<glyph glyph-name="grave" horiz-adv-x="500" unicode="`" d="M326 595h-59l-151 160h107z"/>
<glyph glyph-name="a" horiz-adv-x="539" unicode="a" d="M384 129v106q-54 30 -135 30q-58 0 -90.5 -27t-32.5 -76q0 -57 28.5 -84.5t78.5 -27.5q94 0 151 79zM459 0h-75v64q-69 -75 -164 -75q-71 0 -119.5 40t-48.5 128q0 83 58 125.5t143 42.5q76 0 131 -30v62q0 116 -114 116q-74 0 -143 -40l-28 61q77 42 176 42 q184 0 184 -170v-366z"/>
<glyph glyph-name="b" horiz-adv-x="559" unicode="b" d="M430 270q0 98 -35 149.5t-98 51.5q-78 0 -139 -76v-262q23 -35 60.5 -57t81.5 -22q130 0 130 216zM504 271q0 -134 -56 -208t-142 -74t-148 70v-59h-75v687l75 42v-268q69 75 158 75q84 0 136 -66.5t52 -198.5z"/>
<glyph glyph-name="c" horiz-adv-x="495" unicode="c" d="M447 474l-45 -56q-59 53 -126 53q-63 0 -104 -54.5t-41 -150.5q0 -98 39.5 -155t108.5 -57q63 0 121 56l45 -48q-71 -73 -169 -73q-93 0 -157 70.5t-64 200.5q0 136 67 206t159 70q95 0 166 -62z"/>
<glyph glyph-name="d" horiz-adv-x="559" unicode="d" d="M401 130v262q-23 35 -60.5 57t-81.5 22q-130 0 -130 -216q0 -98 35 -149.5t98 -51.5q78 0 139 76zM476 0h-75v64q-69 -75 -158 -75q-84 0 -136 66.5t-52 198.5q0 134 56 208t142 74t148 -70v221l75 42v-729z"/>
<glyph glyph-name="e" horiz-adv-x="540" unicode="e" d="M413 298q-5 80 -40.5 126.5t-101.5 46.5q-60 0 -97 -43.5t-44 -129.5h283zM483 278q0 -23 -3 -41h-350q5 -85 43.5 -134t102.5 -49q43 0 74 11.5t71 38.5l35 -54q-52 -33 -92 -47t-96 -14q-38 0 -74 15t-68 45.5t-51.5 86t-19.5 129.5q0 123 61 197t156 74 q100 0 155.5 -71t55.5 -187z"/>
<glyph glyph-name="f" horiz-adv-x="356" unicode="f" d="M309 646q-26 12 -61 12q-54 0 -54 -55v-78h103v-63h-103v-462h-75v462h-72v63h72v72q0 129 124 129q39 0 66 -9v-71z"/>
<glyph glyph-name="g" horiz-adv-x="559" unicode="g" d="M401 130v262q-23 35 -60.5 57t-81.5 22q-130 0 -130 -216q0 -98 35 -149.5t98 -51.5q78 0 139 76zM476 47q0 -121 -61 -178.5t-205 -61.5l-24 57q128 4 171.5 41.5t43.5 131.5v27q-69 -75 -158 -75q-84 0 -136 66.5t-52 198.5q0 134 56 208t142 74t148 -70v59h75v-478z "/>
<glyph glyph-name="h" horiz-adv-x="567" unicode="h" d="M487 0h-75v307q0 84 -30.5 124t-93.5 40q-58 0 -94 -41t-36 -123v-307h-75v687l75 42v-268q51 75 145 75q87 0 135.5 -53t48.5 -163v-320z"/>
<glyph glyph-name="i" horiz-adv-x="251" unicode="i" d="M163 0h-75v525h75v-525zM179 672q0 -22 -15.5 -37.5t-36.5 -15.5q-23 0 -39 15.5t-16 37.5q0 23 16 38.5t39 15.5q21 0 36.5 -16t15.5 -38z"/>
<glyph glyph-name="j" horiz-adv-x="251" unicode="j" d="M163 12q0 -95 -30 -138t-125 -67l-25 56q69 21 87 48.5t18 101.5v512h75v-513zM179 672q0 -22 -15.5 -37.5t-36.5 -15.5q-23 0 -39 15.5t-16 37.5q0 23 16 38.5t39 15.5q21 0 36.5 -16t15.5 -38z"/>
<glyph glyph-name="k" horiz-adv-x="505" unicode="k" d="M463 0h-81l-133 276l-91 -125v-151h-75v687l75 42v-480l21 32l172 244h84l-138 -186z"/>
<glyph glyph-name="l" horiz-adv-x="251" unicode="l" d="M163 0h-75v687l75 42v-729z"/>
<glyph glyph-name="m" horiz-adv-x="848" unicode="m" d="M768 0h-75v307q0 88 -27.5 126t-85.5 38q-117 0 -117 -164v-307h-75v307q0 87 -28 125.5t-85 38.5q-117 0 -117 -164v-307h-75v525h75v-64q45 75 133 75q99 0 144 -90q56 90 159 90q174 0 174 -216v-320z"/>
<glyph glyph-name="n" horiz-adv-x="567" unicode="n" d="M487 0h-75v307q0 84 -30.5 124t-93.5 40q-58 0 -94 -41t-36 -123v-307h-75v525h75v-64q51 75 145 75q87 0 135.5 -53t48.5 -163v-320z"/>
<glyph glyph-name="o" horiz-adv-x="566" unicode="o" d="M436 264q0 101 -41.5 154t-111.5 53t-111 -53t-41 -154t41 -155.5t111 -54.5t111.5 54.5t41.5 155.5zM511 266q0 -129 -65 -203t-165 -74t-163 72t-63 201t65 201.5t165 72.5t163 -70.5t63 -199.5z"/>
<glyph glyph-name="p" horiz-adv-x="559" unicode="p" d="M430 270q0 98 -35 149.5t-98 51.5q-78 0 -139 -76v-262q23 -35 60.5 -57t81.5 -22q130 0 130 216zM504 271q0 -134 -56 -208t-142 -74t-148 70v-210l-75 -42v718h75v-64q69 75 158 75q84 0 136 -66.5t52 -198.5z"/>
<glyph glyph-name="q" horiz-adv-x="559" unicode="q" d="M401 130v262q-23 35 -60.5 57t-81.5 22q-130 0 -130 -216q0 -98 35 -149.5t98 -51.5q78 0 139 76zM476 -151l-75 -42v257q-69 -75 -158 -75q-84 0 -136 66.5t-52 198.5q0 134 56 208t142 74t148 -70v59h75v-676z"/>
<glyph glyph-name="r" horiz-adv-x="407" unicode="r" d="M370 523l-19 -76q-35 20 -79 20q-55 0 -84.5 -42t-29.5 -117v-308h-75v525h75v-65q19 33 54 54.5t76 21.5q53 0 82 -13z"/>
<glyph glyph-name="s" horiz-adv-x="467" unicode="s" d="M408 137q0 -73 -52.5 -110.5t-127.5 -37.5q-101 0 -185 67l44 55q66 -58 143 -58q106 0 106 81q0 32 -26.5 54t-97.5 53q-84 36 -116.5 68.5t-32.5 92.5t46 97t118 37q100 0 168 -56l-42 -55q-60 47 -131 47q-41 0 -64 -18t-23 -47q0 -32 23 -51.5t93 -50.5 q45 -20 67.5 -32.5t46.5 -32.5t33.5 -44.5t9.5 -58.5z"/>
<glyph glyph-name="t" horiz-adv-x="372" unicode="t" d="M309 462h-130v-342q0 -35 11.5 -49t41.5 -14q38 0 74 15l-5 -65q-43 -18 -97 -18q-50 0 -75 28t-25 91v354h-65v63h65v162l75 42v-204h130v-63z"/>
<glyph glyph-name="u" horiz-adv-x="567" unicode="u" d="M484 0h-75v64q-51 -75 -145 -75q-87 0 -135.5 53t-48.5 163v320h75v-307q0 -84 30.5 -124t93.5 -40q58 0 94 41t36 123v307h75v-525z"/>
<glyph glyph-name="v" horiz-adv-x="522" unicode="v" d="M482 525l-188 -525h-66l-188 525h80l134 -413l8 -25l8 25l134 413h78z"/>
<glyph glyph-name="w" horiz-adv-x="730" unicode="w" d="M683 525l-139 -525h-69l-95 352q-10 36 -16 74q-6 -38 -16 -74l-95 -352h-67l-139 525h77l82 -347q2 -10 7.5 -38.5t7.5 -35.5q11 53 17 74l94 347h68l94 -347q6 -21 17 -74q2 7 7.5 35.5t7.5 38.5l82 347h75z"/>
<glyph glyph-name="x" horiz-adv-x="504" unicode="x" d="M453 0h-83l-104 182l-16 29l-16 -29l-105 -182h-78l162 271l-151 254h83l93 -163l16 -29l16 29l94 163h78l-151 -252z"/>
<glyph glyph-name="y" horiz-adv-x="531" unicode="y" d="M491 525l-261 -710h-75l72 191l-187 519h79l128 -381l18 -54l18 53l129 382h79z"/>
<glyph glyph-name="z" horiz-adv-x="492" unicode="z" d="M426 0h-372v55l287 407h-264v63h349v-55l-287 -407h287v-63z"/>
<glyph glyph-name="braceleft" horiz-adv-x="397" unicode="{" d="M344 -110q-105 3 -154.5 55t-49.5 158v86q0 43 -12.5 57.5t-46.5 14.5h-24v70h24q34 0 46.5 14.5t12.5 57.5v89q0 106 49.5 158t154.5 55v-63q-70 -8 -100 -40t-30 -101v-70q0 -62 -12.5 -91t-46.5 -45q34 -16 46.5 -45t12.5 -91v-65q0 -69 30 -101t100 -40v-63z"/>
<glyph glyph-name="bar" horiz-adv-x="304" unicode="|" d="M188 -185h-72v985h72v-985z"/>
<glyph glyph-name="braceright" horiz-adv-x="397" unicode="}" d="M340 264h-24q-34 0 -46.5 -14.5t-12.5 -57.5v-89q0 -106 -49.5 -158t-154.5 -55v63q70 8 100 40t30 101v70q0 62 12.5 91t46.5 45q-34 16 -46.5 45t-12.5 91v65q0 69 -30 101t-100 40v63q105 -3 154.5 -55t49.5 -158v-86q0 -43 12.5 -57.5t46.5 -14.5h24v-70z"/>
<glyph glyph-name="asciitilde" horiz-adv-x="552" unicode="~" d="M509 422q-27 -66 -59.5 -96t-83.5 -30q-43 0 -94 34q-59 39 -86 39q-26 0 -41.5 -17t-35.5 -62l-66 30q27 66 59.5 96t83.5 30q42 0 94 -34q61 -39 86 -39q26 0 41 16t36 63z"/>
<glyph glyph-name="exclamdown" horiz-adv-x="263" unicode="¡" d="M170 0h-77v329l18 183h42l17 -183v-329zM193 650q0 -25 -18 -44t-43 -19q-24 0 -42.5 19t-18.5 44t18.5 43t42.5 18q25 0 43 -18t18 -43z"/>
<glyph glyph-name="cent" horiz-adv-x="495" unicode="¢" d="M447 568l-43 -54q-34 28 -61 39.5t-67 11.5q-63 0 -104 -54.5t-41 -150.5q0 -98 39.5 -155t108.5 -57q65 0 122 55l44 -47q-58 -59 -131 -70v-97h-77v97q-79 14 -130.5 83t-51.5 185q0 118 52 187t130 85v94h77v-92q76 -10 133 -60z"/>
<glyph glyph-name="sterling" horiz-adv-x="611" unicode="£" d="M552 0h-468v70q50 58 73.5 106.5t24.5 116.5h-98v68h87q-8 20 -33 63q-34 55 -34 112q0 82 63 128.5t161 46.5q120 0 216 -87l-47 -57q-77 74 -171 74q-70 0 -107.5 -29.5t-37.5 -74.5q0 -41 32 -94q25 -42 36 -82h152v-68h-145q-4 -121 -84 -222h380v-71z"/>
<glyph glyph-name="currency" horiz-adv-x="595" unicode="¤" d="M143 249q16 -92 63 -141.5t123 -49.5q52 0 88.5 22t73.5 69l50 -44q-44 -57 -93 -86.5t-121 -29.5q-125 0 -196.5 95t-71.5 265q0 172 73 267t198 95q72 0 120 -26t88 -86l-58 -45q-33 48 -66 68t-86 20q-74 0 -120.5 -47t-63.5 -135h269v-63h-277q-1 -15 -1 -46 q0 -26 1 -39h277v-63h-270z"/>
<glyph glyph-name="yen" horiz-adv-x="612" unicode="¥" d="M575 700l-230 -422v-78h155v-69h-155v-131h-78v131h-164v69h164v77l-230 423h89l104 -201q48 -93 77 -155q29 64 77 155l104 201h87z"/>
<glyph glyph-name="brokenbar" d="M708 345l-166 -121q-6 -4 -9 -3q-5 2 -2 10l30 80h-161v-179l80 30q8 3 10 -2q1 -3 -3 -9l-121 -166l-121 166q-4 6 -3 9q2 5 10 2l80 -30v179h-165l30 -80q3 -8 -2 -10q-3 -1 -9 3l-166 121l166 121q6 4 9 3q5 -2 2 -10l-30 -80h165v189l-80 -30q-8 -3 -10 2q-1 3 3 9 l121 166l121 -166q4 -6 3 -9q-2 -5 -10 -2l-80 30v-189h161l-30 80q-3 8 2 10q3 1 9 -3z" unicode="¦"/>
<glyph glyph-name="section" horiz-adv-x="628" unicode="§" d="M496 262q0 46 -32 74.5t-126 51.5q-62 16 -96 30q-110 -51 -110 -133q0 -46 32 -74.5t126 -51.5q62 -16 96 -30q110 51 110 133zM573 268q0 -105 -124 -174q54 -41 54 -106q0 -69 -54 -110.5t-140 -41.5q-104 0 -193 72l46 56q40 -33 74.5 -45.5t84.5 -12.5q46 0 75.5 21 t29.5 55q0 35 -31 59.5t-112 44.5q-130 33 -179 75t-49 118q0 105 124 174q-54 41 -54 106q0 69 54 110.5t140 41.5q104 0 193 -72l-46 -56q-40 33 -74.5 45.5t-84.5 12.5q-46 0 -75.5 -21t-29.5 -55q0 -35 31 -59.5t112 -44.5q130 -33 179 -75t49 -118z"/>
<glyph glyph-name="dieresis" horiz-adv-x="500" unicode="¨" d="M208 658q0 -22 -16 -38.5t-38 -16.5q-23 0 -39.5 16t-16.5 39t16.5 39.5t39.5 16.5q22 0 38 -16.5t16 -39.5zM402 658q0 -22 -16 -38.5t-39 -16.5t-39 16.5t-16 38.5q0 23 16.5 39.5t38.5 16.5t38.5 -16.5t16.5 -39.5z"/>
<glyph glyph-name="copyright" horiz-adv-x="836" unicode="©" d="M557 212q-53 -70 -139 -70q-74 0 -120 59t-46 148q0 91 47 150t121 59q82 0 134 -68l-42 -33q-22 28 -42.5 39.5t-50.5 11.5q-50 0 -81.5 -44t-31.5 -113t32 -114t81 -45q56 0 99 54zM730 350q0 138 -89 226.5t-223 88.5t-223 -88.5t-89 -226.5t89 -226.5t223 -88.5 t223 88.5t89 226.5zM779 350q0 -160 -102.5 -260.5t-258.5 -100.5t-258.5 100.5t-102.5 260.5t102.5 260.5t258.5 100.5t258.5 -100.5t102.5 -260.5z"/>
<glyph glyph-name="ordfeminine" horiz-adv-x="455" unicode="ª" d="M312 388v80q-44 22 -104 22q-44 0 -69 -20.5t-25 -56.5q0 -42 21.5 -63t59.5 -21q72 0 117 59zM380 282h-68v44q-53 -53 -127 -53q-58 0 -98 32.5t-40 103.5q0 68 47 102t117 34q57 0 101 -21v43q0 87 -87 87q-62 0 -115 -32l-27 54q67 35 146 35q151 0 151 -137v-292z "/>
<glyph glyph-name="guillemotleft" horiz-adv-x="576" unicode="«" d="M318 0h-85l-203 262l203 263h85l-203 -262zM531 0h-85l-203 262l203 263h85l-203 -262z"/>
<glyph glyph-name="logicalnot" horiz-adv-x="630" unicode="¬" d="M610 345l-176 -117q-4 -3 -7 -3t-4 1q-6 4 -3 9l30 75h-395v70h395l-30 75q-3 5 3 9q1 1 4 1t7 -3z"/>
<glyph glyph-name="registered" horiz-adv-x="836" unicode="®" d="M525 441q0 68 -78 68h-106v-135h100q84 0 84 67zM578 441q0 -44 -24.5 -73.5t-67.5 -39.5l89 -171h-62l-86 167h-86v-167h-53v399h162q57 0 92.5 -29t35.5 -86zM730 350q0 138 -89 226.5t-223 88.5t-223 -88.5t-89 -226.5t89 -226.5t223 -88.5t223 88.5t89 226.5z M779 350q0 -160 -102.5 -260.5t-258.5 -100.5t-258.5 100.5t-102.5 260.5t102.5 260.5t258.5 100.5t258.5 -100.5t102.5 -260.5z"/>
<glyph glyph-name="degree" horiz-adv-x="476" unicode="°" d="M359 520q0 56 -33.5 92.5t-87.5 36.5t-87.5 -36.5t-33.5 -92.5q0 -58 33.5 -94.5t87.5 -36.5q55 0 88 36t33 95zM425 520q0 -83 -53 -138t-134 -55t-134 55t-53 138q0 81 53.5 136t133.5 55q81 0 134 -55t53 -136z"/>
<glyph glyph-name="plusminus" d="M708 345l-166 -121q-6 -4 -9 -3q-5 2 -2 10l30 80h-161v-179l80 30q8 3 10 -2q1 -3 -3 -9l-121 -166l-121 166q-4 6 -3 9q2 5 10 2l80 -30v179h-165l30 -80q3 -8 -2 -10q-3 -1 -9 3l-166 121l166 121q6 4 9 3q5 -2 2 -10l-30 -80h165v189l-80 -30q-8 -3 -10 2q-1 3 3 9 l121 166l121 -166q4 -6 3 -9q-2 -5 -10 -2l-80 30v-189h161l-30 80q-3 8 2 10q3 1 9 -3z" unicode="±"/>
<glyph glyph-name="twosuperior" d="M708 345l-166 -121q-6 -4 -9 -3q-5 2 -2 10l30 80h-161v-179l80 30q8 3 10 -2q1 -3 -3 -9l-121 -166l-121 166q-4 6 -3 9q2 5 10 2l80 -30v179h-165l30 -80q3 -8 -2 -10q-3 -1 -9 3l-166 121l166 121q6 4 9 3q5 -2 2 -10l-30 -80h165v189l-80 -30q-8 -3 -10 2q-1 3 3 9 l121 166l121 -166q4 -6 3 -9q-2 -5 -10 -2l-80 30v-189h161l-30 80q-3 8 2 10q3 1 9 -3z" unicode="²"/>
<glyph glyph-name="threesuperior" d="M708 345l-166 -121q-6 -4 -9 -3q-5 2 -2 10l30 80h-161v-179l80 30q8 3 10 -2q1 -3 -3 -9l-121 -166l-121 166q-4 6 -3 9q2 5 10 2l80 -30v179h-165l30 -80q3 -8 -2 -10q-3 -1 -9 3l-166 121l166 121q6 4 9 3q5 -2 2 -10l-30 -80h165v189l-80 -30q-8 -3 -10 2q-1 3 3 9 l121 166l121 -166q4 -6 3 -9q-2 -5 -10 -2l-80 30v-189h161l-30 80q-3 8 2 10q3 1 9 -3z" unicode="³"/>
<glyph glyph-name="acute" horiz-adv-x="500" unicode="´" d="M384 755l-151 -160h-59l103 160h107z"/>
<glyph glyph-name="mu" horiz-adv-x="770" unicode="µ" d="M750 345l-176 -117q-4 -3 -7 -3t-4 1q-6 4 -3 9l30 75h-410l30 -75q3 -5 -3 -9q-1 -1 -4 -1t-7 3l-176 117l176 117q5 3 7 3q3 0 4 -1q6 -4 3 -9l-30 -75h410l-30 75q-3 5 3 9q1 1 4 1t7 -3z"/>
<glyph glyph-name="mu" horiz-adv-x="770" unicode="μ" d="M750 345l-176 -117q-4 -3 -7 -3t-4 1q-6 4 -3 9l30 75h-410l30 -75q3 -5 -3 -9q-1 -1 -4 -1t-7 3l-176 117l176 117q5 3 7 3q3 0 4 -1q6 -4 3 -9l-30 -75h410l-30 75q-3 5 3 9q1 1 4 1t7 -3z"/>
<glyph glyph-name="paragraph" horiz-adv-x="688" unicode="¶" d="M595 -185h-77v817h-91v-817h-77v446h-76q-96 0 -161.5 59t-65.5 161q0 101 65.5 160t161.5 59h321v-885z"/>
<glyph glyph-name="cedilla" horiz-adv-x="500" unicode="¸" d="M373 -106q0 -87 -119 -87q-63 0 -118 36l19 32q42 -27 92 -27q67 0 67 43q0 33 -32 33q-28 0 -48 -18l-36 14l25 80h45l-17 -51q22 14 55 14q25 0 46 -17t21 -52z"/>
<glyph glyph-name="onesuperior" d="M708 345l-166 -121q-6 -4 -9 -3q-5 2 -2 10l30 80h-161v-179l80 30q8 3 10 -2q1 -3 -3 -9l-121 -166l-121 166q-4 6 -3 9q2 5 10 2l80 -30v179h-165l30 -80q3 -8 -2 -10q-3 -1 -9 3l-166 121l166 121q6 4 9 3q5 -2 2 -10l-30 -80h165v189l-80 -30q-8 -3 -10 2q-1 3 3 9 l121 166l121 -166q4 -6 3 -9q-2 -5 -10 -2l-80 30v-189h161l-30 80q-3 8 2 10q3 1 9 -3z" unicode="¹"/>
<glyph glyph-name="ordmasculine" horiz-adv-x="480" unicode="º" d="M358 494q0 77 -31.5 117t-86.5 40t-86.5 -40t-31.5 -117q0 -78 31.5 -119t86.5 -41t86.5 41t31.5 119zM426 495q0 -103 -53 -162t-135 -59t-133 57.5t-51 160.5q0 104 52.5 161.5t135.5 57.5q82 0 133 -56t51 -160z"/>
<glyph glyph-name="guillemotright" horiz-adv-x="576" unicode="»" d="M333 263l-203 -263h-85l203 262l-203 263h85zM546 263l-203 -263h-85l203 262l-203 263h85z"/>
<glyph glyph-name="onequarter" d="M708 345l-166 -121q-6 -4 -9 -3q-5 2 -2 10l30 80h-161v-179l80 30q8 3 10 -2q1 -3 -3 -9l-121 -166l-121 166q-4 6 -3 9q2 5 10 2l80 -30v179h-165l30 -80q3 -8 -2 -10q-3 -1 -9 3l-166 121l166 121q6 4 9 3q5 -2 2 -10l-30 -80h165v189l-80 -30q-8 -3 -10 2q-1 3 3 9 l121 166l121 -166q4 -6 3 -9q-2 -5 -10 -2l-80 30v-189h161l-30 80q-3 8 2 10q3 1 9 -3z" unicode="¼"/>
<glyph glyph-name="onehalf" d="M708 345l-166 -121q-6 -4 -9 -3q-5 2 -2 10l30 80h-161v-179l80 30q8 3 10 -2q1 -3 -3 -9l-121 -166l-121 166q-4 6 -3 9q2 5 10 2l80 -30v179h-165l30 -80q3 -8 -2 -10q-3 -1 -9 3l-166 121l166 121q6 4 9 3q5 -2 2 -10l-30 -80h165v189l-80 -30q-8 -3 -10 2q-1 3 3 9 l121 166l121 -166q4 -6 3 -9q-2 -5 -10 -2l-80 30v-189h161l-30 80q-3 8 2 10q3 1 9 -3z" unicode="½"/>
<glyph glyph-name="threequarters" d="M708 345l-166 -121q-6 -4 -9 -3q-5 2 -2 10l30 80h-161v-179l80 30q8 3 10 -2q1 -3 -3 -9l-121 -166l-121 166q-4 6 -3 9q2 5 10 2l80 -30v179h-165l30 -80q3 -8 -2 -10q-3 -1 -9 3l-166 121l166 121q6 4 9 3q5 -2 2 -10l-30 -80h165v189l-80 -30q-8 -3 -10 2q-1 3 3 9 l121 166l121 -166q4 -6 3 -9q-2 -5 -10 -2l-80 30v-189h161l-30 80q-3 8 2 10q3 1 9 -3z" unicode="¾"/>
<glyph glyph-name="questiondown" horiz-adv-x="561" unicode="¿" d="M517 82q-95 -93 -234 -93q-98 0 -157 44.5t-59 127.5q0 67 28.5 103.5t95.5 77.5q50 30 63 60t13 110h77q0 -102 -20 -141.5t-98 -87.5q-43 -26 -62 -51t-19 -65q0 -48 39 -77.5t102 -29.5q98 0 181 77zM368 650q0 -25 -18 -44t-43 -19q-24 0 -42.5 19t-18.5 44t18.5 43 t42.5 18q25 0 43 -18t18 -43z"/>
<glyph glyph-name="Agrave" horiz-adv-x="678" unicode="À" d="M370 745h-59l-151 160h107zM459 249l-77 230q-32 91 -43 138q-12 -47 -44 -140l-77 -228h241zM625 0h-82l-60 178h-289l-61 -178h-80l243 700h86z"/>
<glyph glyph-name="Aacute" horiz-adv-x="678" unicode="Á" d="M517 905l-151 -160h-59l103 160h107zM459 249l-77 230q-32 91 -43 138q-12 -47 -44 -140l-77 -228h241zM625 0h-82l-60 178h-289l-61 -178h-80l243 700h86z"/>
<glyph glyph-name="Acircumflex" horiz-adv-x="678" unicode="Â" d="M504 725h-65l-101 103l-101 -103h-63l123 160h84zM459 249l-77 230q-32 91 -43 138q-12 -47 -44 -140l-77 -228h241zM625 0h-82l-60 178h-289l-61 -178h-80l243 700h86z"/>
<glyph glyph-name="Atilde" horiz-adv-x="678" unicode="Ã" d="M517 878q0 -63 -29 -96.5t-73 -33.5q-40 0 -74 26q-39 30 -51.5 37t-27.5 7q-31 0 -39 -67h-62q0 63 29 96.5t73 33.5q40 0 74 -26q36 -28 50.5 -36t28.5 -8q30 0 39 67h62zM459 249l-77 230q-32 91 -43 138q-12 -47 -44 -140l-77 -228h241zM625 0h-82l-60 178h-289 l-61 -178h-80l243 700h86z"/>
<glyph glyph-name="Adieresis" horiz-adv-x="678" unicode="Ä" d="M298 808q0 -22 -16 -38.5t-38 -16.5q-23 0 -39.5 16t-16.5 39t16.5 39.5t39.5 16.5q22 0 38 -16.5t16 -39.5zM492 808q0 -22 -16 -38.5t-39 -16.5t-39 16.5t-16 38.5q0 23 16.5 39.5t38.5 16.5t38.5 -16.5t16.5 -39.5zM459 249l-77 230q-32 91 -43 138q-12 -47 -44 -140 l-77 -228h241zM625 0h-82l-60 178h-289l-61 -178h-80l243 700h86z"/>
<glyph glyph-name="Aring" horiz-adv-x="678" unicode="Å" d="M459 249l-77 230q-32 91 -43 138q-12 -47 -44 -140l-77 -228h241zM408 763q0 31 -19 51t-51 20t-51 -20t-19 -51q0 -32 19 -52t51 -20t51 20t19 52zM625 0h-82l-60 178h-289l-61 -178h-80l230 658q-62 33 -62 105q0 49 33 82.5t84 33.5t84 -33.5t33 -82.5q0 -71 -61 -104 z"/>
<glyph glyph-name="AE" horiz-adv-x="998" unicode="Æ" d="M505 600q-12 -20 -65 -101l-164 -250h227v222q0 23 1 70t1 59zM941 0h-438v178h-273l-117 -178h-89l470 700h432v-71h-349v-220h204v-71h-204v-267h364v-71z"/>
<glyph glyph-name="Ccedilla" horiz-adv-x="628" unicode="Ç" d="M574 105q-82 -112 -220 -116l-13 -40q22 14 55 14q25 0 46 -17t21 -52q0 -87 -119 -87q-63 0 -118 36l19 32q42 -27 92 -27q67 0 67 43q0 33 -32 33q-28 0 -48 -18l-36 14l22 71q-112 15 -180 114t-68 244q0 157 80 259.5t206 102.5q142 0 223 -112l-62 -47 q-35 47 -71.5 67.5t-91.5 20.5q-90 0 -148 -81t-58 -208t59 -209t148 -82q102 0 173 92z"/>
<glyph glyph-name="Egrave" horiz-adv-x="587" unicode="È" d="M357 745h-59l-151 160h107zM530 0h-438v700h423v-71h-345v-220h200v-71h-200v-267h360v-71z"/>
<glyph glyph-name="Eacute" horiz-adv-x="587" unicode="É" d="M465 905l-151 -160h-59l103 160h107zM530 0h-438v700h423v-71h-345v-220h200v-71h-200v-267h360v-71z"/>
<glyph glyph-name="Ecircumflex" horiz-adv-x="587" unicode="Ê" d="M468 745h-65l-101 103l-101 -103h-63l123 160h84zM530 0h-438v700h423v-71h-345v-220h200v-71h-200v-267h360v-71z"/>
<glyph glyph-name="Edieresis" horiz-adv-x="587" unicode="Ë" d="M262 808q0 -22 -16 -38.5t-38 -16.5q-23 0 -39.5 16t-16.5 39t16.5 39.5t39.5 16.5q22 0 38 -16.5t16 -39.5zM456 808q0 -22 -16 -38.5t-39 -16.5t-39 16.5t-16 38.5q0 23 16.5 39.5t38.5 16.5t38.5 -16.5t16.5 -39.5zM530 0h-438v700h423v-71h-345v-220h200v-71h-200 v-267h360v-71z"/>
<glyph glyph-name="Igrave" horiz-adv-x="272" unicode="Ì" d="M172 745h-59l-151 160h107zM175 0h-78v700h78v-700z"/>
<glyph glyph-name="Iacute" horiz-adv-x="272" unicode="Í" d="M311 905l-151 -160h-59l103 160h107zM175 0h-78v700h78v-700z"/>
<glyph glyph-name="Icircumflex" horiz-adv-x="272" unicode="Î" d="M298 740h-65l-101 103l-101 -103h-63l123 160h84zM175 0h-78v700h78v-700z"/>
<glyph glyph-name="Idieresis" horiz-adv-x="272" unicode="Ï" d="M93 812q0 -22 -16 -38.5t-38 -16.5q-23 0 -39.5 16t-16.5 39t16.5 39.5t39.5 16.5q22 0 38 -16.5t16 -39.5zM287 812q0 -22 -16.5 -38.5t-38.5 -16.5t-38.5 16.5t-16.5 38.5q0 23 16.5 39.5t38.5 16.5t38.5 -16.5t16.5 -39.5zM175 0h-78v700h78v-700z"/>
<glyph glyph-name="Eth" horiz-adv-x="682" unicode="Ð" d="M528 352q0 135 -63.5 206t-183.5 71h-103v-228h142v-70h-142v-260h105q245 0 245 281zM606 355q0 -181 -91.5 -268t-241.5 -87h-171v331h-62v70h62v299h185q145 0 232 -86t87 -259z"/>
<glyph glyph-name="Ntilde" horiz-adv-x="688" unicode="Ñ" d="M527 882q0 -63 -29 -96.5t-73 -33.5q-40 0 -74 26q-39 30 -51.5 37t-27.5 7q-31 0 -39 -67h-62q0 63 29 96.5t73 33.5q40 0 74 -26q36 -28 50.5 -36t28.5 -8q30 0 39 67h62zM596 0h-73l-306 479q-30 48 -50 88v-567h-75v700h76l303 -488q30 -48 50 -88v576h75v-700z"/>
<glyph glyph-name="Ograve" horiz-adv-x="705" unicode="Ò" d="M392 745h-59l-151 160h107zM565 349q0 130 -61 210.5t-154 80.5q-92 0 -151 -79.5t-59 -209.5t60.5 -210.5t153.5 -80.5q92 0 151.5 79.5t59.5 209.5zM643 351q0 -159 -81 -260.5t-211 -101.5t-209.5 100.5t-79.5 259.5t80.5 260.5t210.5 101.5t210 -100.5t80 -259.5z "/>
<glyph glyph-name="Oacute" horiz-adv-x="705" unicode="Ó" d="M520 905l-151 -160h-59l103 160h107zM565 349q0 130 -61 210.5t-154 80.5q-92 0 -151 -79.5t-59 -209.5t60.5 -210.5t153.5 -80.5q92 0 151.5 79.5t59.5 209.5zM643 351q0 -159 -81 -260.5t-211 -101.5t-209.5 100.5t-79.5 259.5t80.5 260.5t210.5 101.5t210 -100.5 t80 -259.5z"/>
<glyph glyph-name="Ocircumflex" horiz-adv-x="705" unicode="Ô" d="M516 740h-65l-101 103l-101 -103h-63l123 160h84zM565 349q0 130 -61 210.5t-154 80.5q-92 0 -151 -79.5t-59 -209.5t60.5 -210.5t153.5 -80.5q92 0 151.5 79.5t59.5 209.5zM643 351q0 -159 -81 -260.5t-211 -101.5t-209.5 100.5t-79.5 259.5t80.5 260.5t210.5 101.5 t210 -100.5t80 -259.5z"/>
<glyph glyph-name="Otilde" horiz-adv-x="705" unicode="Õ" d="M529 878q0 -63 -29 -96.5t-73 -33.5q-40 0 -74 26q-39 30 -51.5 37t-27.5 7q-31 0 -39 -67h-62q0 63 29 96.5t73 33.5q40 0 74 -26q36 -28 50.5 -36t28.5 -8q30 0 39 67h62zM565 349q0 130 -61 210.5t-154 80.5q-92 0 -151 -79.5t-59 -209.5t60.5 -210.5t153.5 -80.5 q92 0 151.5 79.5t59.5 209.5zM643 351q0 -159 -81 -260.5t-211 -101.5t-209.5 100.5t-79.5 259.5t80.5 260.5t210.5 101.5t210 -100.5t80 -259.5z"/>
<glyph glyph-name="Odieresis" horiz-adv-x="705" unicode="Ö" d="M310 808q0 -22 -16 -38.5t-38 -16.5q-23 0 -39.5 16t-16.5 39t16.5 39.5t39.5 16.5q22 0 38 -16.5t16 -39.5zM504 808q0 -22 -16 -38.5t-39 -16.5t-39 16.5t-16 38.5q0 23 16.5 39.5t38.5 16.5t38.5 -16.5t16.5 -39.5zM565 349q0 130 -61 210.5t-154 80.5 q-92 0 -151 -79.5t-59 -209.5t60.5 -210.5t153.5 -80.5q92 0 151.5 79.5t59.5 209.5zM643 351q0 -159 -81 -260.5t-211 -101.5t-209.5 100.5t-79.5 259.5t80.5 260.5t210.5 101.5t210 -100.5t80 -259.5z"/>
<glyph glyph-name="multiply" d="M708 345l-166 -121q-6 -4 -9 -3q-5 2 -2 10l30 80h-161v-179l80 30q8 3 10 -2q1 -3 -3 -9l-121 -166l-121 166q-4 6 -3 9q2 5 10 2l80 -30v179h-165l30 -80q3 -8 -2 -10q-3 -1 -9 3l-166 121l166 121q6 4 9 3q5 -2 2 -10l-30 -80h165v189l-80 -30q-8 -3 -10 2q-1 3 3 9 l121 166l121 -166q4 -6 3 -9q-2 -5 -10 -2l-80 30v-189h161l-30 80q-3 8 2 10q3 1 9 -3z" unicode="×"/>
<glyph glyph-name="Oslash" horiz-adv-x="705" unicode="Ø" d="M568 349q0 152 -82 236l-229 -501q43 -27 97 -27q93 0 153.5 80.5t60.5 211.5zM434 623q-40 20 -84 20q-93 0 -153 -80t-60 -212q0 -142 71 -224zM643 351q0 -159 -81 -260.5t-211 -101.5q-69 0 -124 29l-31 -68h-69l48 104q-113 100 -113 295q0 159 80.5 260.5 t210.5 101.5q59 0 111 -23l28 62h69l-43 -95q59 -46 92 -125t33 -179z"/>
<glyph glyph-name="Ugrave" horiz-adv-x="678" unicode="Ù" d="M379 730h-59l-151 160h107zM591 286q0 -297 -251 -297q-125 0 -189 74.5t-64 220.5v416h78v-414q0 -226 179 -226q89 0 129 54.5t40 169.5v416h78v-414z"/>
<glyph glyph-name="Uacute" horiz-adv-x="678" unicode="Ú" d="M507 890l-151 -160h-59l103 160h107zM591 286q0 -297 -251 -297q-125 0 -189 74.5t-64 220.5v416h78v-414q0 -226 179 -226q89 0 129 54.5t40 169.5v416h78v-414z"/>
<glyph glyph-name="Ucircumflex" horiz-adv-x="678" unicode="Û" d="M504 745h-65l-101 103l-101 -103h-63l123 160h84zM591 286q0 -297 -251 -297q-125 0 -189 74.5t-64 220.5v416h78v-414q0 -226 179 -226q89 0 129 54.5t40 169.5v416h78v-414z"/>
<glyph glyph-name="Udieresis" horiz-adv-x="678" unicode="Ü" d="M297 808q0 -22 -16 -38.5t-38 -16.5q-23 0 -39.5 16t-16.5 39t16.5 39.5t39.5 16.5q22 0 38 -16.5t16 -39.5zM491 808q0 -22 -16.5 -38.5t-38.5 -16.5t-38.5 16.5t-16.5 38.5q0 23 16.5 39.5t38.5 16.5t38.5 -16.5t16.5 -39.5zM591 286q0 -297 -251 -297 q-125 0 -189 74.5t-64 220.5v416h78v-414q0 -226 179 -226q89 0 129 54.5t40 169.5v416h78v-414z"/>
<glyph glyph-name="Yacute" horiz-adv-x="652" unicode="Ý" d="M499 886l-151 -160h-59l103 160h107zM605 700l-240 -422v-278h-78v277l-240 423h89l112 -201q52 -95 79 -150q34 69 79 150l112 201h87z"/>
<glyph glyph-name="Thorn" horiz-adv-x="618" unicode="Þ" d="M499 362q0 68 -38 104.5t-110 36.5h-181v-283h171q158 0 158 142zM577 365q0 -102 -65 -159t-172 -57h-170v-149h-78v700h78v-126h184q100 0 161.5 -53.5t61.5 -155.5z"/>
<glyph glyph-name="germandbls" horiz-adv-x="572" unicode="ß" d="M517 226q0 -117 -71.5 -171.5t-187.5 -54.5h-15v66h18q181 0 181 153q0 73 -51 109.5t-128 36.5h-20v65h23q59 0 90.5 30t31.5 88q0 52 -31.5 82.5t-84.5 30.5q-51 0 -82.5 -34.5t-31.5 -97.5v-680l-75 -42v709q0 100 51.5 155t139.5 55q85 0 137 -50.5t52 -126.5 q0 -104 -91 -145q61 -15 103 -58t42 -120z"/>
<glyph glyph-name="agrave" horiz-adv-x="539" unicode="à" d="M319 595h-59l-151 160h107zM384 129v106q-54 30 -135 30q-58 0 -90.5 -27t-32.5 -76q0 -57 28.5 -84.5t78.5 -27.5q94 0 151 79zM459 0h-75v64q-69 -75 -164 -75q-71 0 -119.5 40t-48.5 128q0 83 58 125.5t143 42.5q76 0 131 -30v62q0 116 -114 116q-74 0 -143 -40 l-28 61q77 42 176 42q184 0 184 -170v-366z"/>
<glyph glyph-name="aacute" horiz-adv-x="539" unicode="á" d="M437 755l-151 -160h-59l103 160h107zM384 129v106q-54 30 -135 30q-58 0 -90.5 -27t-32.5 -76q0 -57 28.5 -84.5t78.5 -27.5q94 0 151 79zM459 0h-75v64q-69 -75 -164 -75q-71 0 -119.5 40t-48.5 128q0 83 58 125.5t143 42.5q76 0 131 -30v62q0 116 -114 116 q-74 0 -143 -40l-28 61q77 42 176 42q184 0 184 -170v-366z"/>
<glyph glyph-name="acircumflex" horiz-adv-x="539" unicode="â" d="M436 590h-65l-101 103l-101 -103h-63l123 160h84zM384 129v106q-54 30 -135 30q-58 0 -90.5 -27t-32.5 -76q0 -57 28.5 -84.5t78.5 -27.5q94 0 151 79zM459 0h-75v64q-69 -75 -164 -75q-71 0 -119.5 40t-48.5 128q0 83 58 125.5t143 42.5q76 0 131 -30v62q0 116 -114 116 q-74 0 -143 -40l-28 61q77 42 176 42q184 0 184 -170v-366z"/>
<glyph glyph-name="atilde" horiz-adv-x="539" unicode="ã" d="M448 728q0 -63 -29 -96.5t-73 -33.5q-40 0 -74 26q-39 30 -51.5 37t-27.5 7q-31 0 -39 -67h-62q0 63 29 96.5t73 33.5q40 0 74 -26q36 -28 50.5 -36t28.5 -8q30 0 39 67h62zM384 129v106q-54 30 -135 30q-58 0 -90.5 -27t-32.5 -76q0 -57 28.5 -84.5t78.5 -27.5 q94 0 151 79zM459 0h-75v64q-69 -75 -164 -75q-71 0 -119.5 40t-48.5 128q0 83 58 125.5t143 42.5q76 0 131 -30v62q0 116 -114 116q-74 0 -143 -40l-28 61q77 42 176 42q184 0 184 -170v-366z"/>
<glyph glyph-name="adieresis" horiz-adv-x="539" unicode="ä" d="M228 653q0 -22 -16 -38.5t-38 -16.5q-23 0 -39.5 16t-16.5 39t16.5 39.5t39.5 16.5q22 0 38 -16.5t16 -39.5zM422 653q0 -23 -16 -39t-39 -16t-39 16t-16 39t16.5 39.5t38.5 16.5t38.5 -16.5t16.5 -39.5zM384 129v106q-54 30 -135 30q-58 0 -90.5 -27t-32.5 -76 q0 -57 28.5 -84.5t78.5 -27.5q94 0 151 79zM459 0h-75v64q-69 -75 -164 -75q-71 0 -119.5 40t-48.5 128q0 83 58 125.5t143 42.5q76 0 131 -30v62q0 116 -114 116q-74 0 -143 -40l-28 61q77 42 176 42q184 0 184 -170v-366z"/>
<glyph glyph-name="aring" horiz-adv-x="539" unicode="å" d="M341 716q0 31 -19 51t-51 20t-51 -20t-19 -51q0 -32 19 -52t51 -20t51 20t19 52zM388 716q0 -49 -33.5 -83t-83.5 -34t-83.5 34t-33.5 83t33 82.5t84 33.5t84 -33.5t33 -82.5zM384 129v106q-54 30 -135 30q-58 0 -90.5 -27t-32.5 -76q0 -57 28.5 -84.5t78.5 -27.5 q94 0 151 79zM459 0h-75v64q-69 -75 -164 -75q-71 0 -119.5 40t-48.5 128q0 83 58 125.5t143 42.5q76 0 131 -30v62q0 116 -114 116q-74 0 -143 -40l-28 61q77 42 176 42q184 0 184 -170v-366z"/>
<glyph glyph-name="ae" horiz-adv-x="838" unicode="æ" d="M384 139q-13 40 -16 97q-53 29 -126 29q-116 0 -116 -103q0 -112 100 -112q90 0 158 89zM711 298q-10 173 -135 173q-121 0 -134 -173h269zM781 278q0 -23 -3 -41h-336q5 -86 40.5 -134.5t98.5 -48.5q42 0 69 11t69 39l35 -54q-53 -34 -89.5 -47.5t-91.5 -13.5 q-105 0 -162 91q-43 -49 -87.5 -70t-110.5 -21q-69 0 -115 40t-46 128q0 84 55 126t139 42q69 0 124 -30v62q0 60 -25 88t-82 28q-67 0 -136 -40l-28 61q77 42 169 42q134 0 153 -95q49 95 156 95q100 0 152 -70.5t52 -187.5z"/>
<glyph glyph-name="ccedilla" horiz-adv-x="495" unicode="ç" d="M447 474l-45 -56q-59 53 -126 53q-63 0 -104 -54.5t-41 -150.5q0 -98 39.5 -155t108.5 -57q63 0 121 56l45 -48q-71 -73 -168 -73l-13 -40q22 14 55 14q25 0 46 -17t21 -52q0 -87 -119 -87q-63 0 -118 36l19 32q42 -27 92 -27q67 0 67 43q0 33 -32 33q-29 0 -48 -18 l-36 14l23 73q-78 15 -128.5 84t-50.5 183q0 136 67 206t159 70q95 0 166 -62z"/>
<glyph glyph-name="egrave" horiz-adv-x="540" unicode="è" d="M319 595h-59l-151 160h107zM413 298q-5 80 -40.5 126.5t-101.5 46.5q-60 0 -97 -43.5t-44 -129.5h283zM483 278q0 -23 -3 -41h-350q5 -85 43.5 -134t102.5 -49q43 0 74 11.5t71 38.5l35 -54q-52 -33 -92 -47t-96 -14q-38 0 -74 15t-68 45.5t-51.5 86t-19.5 129.5 q0 123 61 197t156 74q100 0 155.5 -71t55.5 -187z"/>
<glyph glyph-name="eacute" horiz-adv-x="540" unicode="é" d="M437 755l-151 -160h-59l103 160h107zM413 298q-5 80 -40.5 126.5t-101.5 46.5q-60 0 -97 -43.5t-44 -129.5h283zM483 278q0 -23 -3 -41h-350q5 -85 43.5 -134t102.5 -49q43 0 74 11.5t71 38.5l35 -54q-52 -33 -92 -47t-96 -14q-38 0 -74 15t-68 45.5t-51.5 86 t-19.5 129.5q0 123 61 197t156 74q100 0 155.5 -71t55.5 -187z"/>
<glyph glyph-name="ecircumflex" horiz-adv-x="540" unicode="ê" d="M436 585h-65l-101 103l-101 -103h-63l123 160h84zM413 298q-5 80 -40.5 126.5t-101.5 46.5q-60 0 -97 -43.5t-44 -129.5h283zM483 278q0 -23 -3 -41h-350q5 -85 43.5 -134t102.5 -49q43 0 74 11.5t71 38.5l35 -54q-52 -33 -92 -47t-96 -14q-38 0 -74 15t-68 45.5 t-51.5 86t-19.5 129.5q0 123 61 197t156 74q100 0 155.5 -71t55.5 -187z"/>
<glyph glyph-name="edieresis" horiz-adv-x="540" unicode="ë" d="M229 653q0 -22 -16 -38.5t-38 -16.5q-23 0 -39.5 16t-16.5 39t16.5 39.5t39.5 16.5q22 0 38 -16.5t16 -39.5zM423 653q0 -23 -16.5 -39t-38.5 -16t-38.5 16t-16.5 39t16.5 39.5t38.5 16.5t38.5 -16.5t16.5 -39.5zM413 298q-5 80 -40.5 126.5t-101.5 46.5q-60 0 -97 -43.5 t-44 -129.5h283zM483 278q0 -23 -3 -41h-350q5 -85 43.5 -134t102.5 -49q43 0 74 11.5t71 38.5l35 -54q-52 -33 -92 -47t-96 -14q-38 0 -74 15t-68 45.5t-51.5 86t-19.5 129.5q0 123 61 197t156 74q100 0 155.5 -71t55.5 -187z"/>
<glyph glyph-name="igrave" horiz-adv-x="251" unicode="ì" d="M158 595h-59l-151 160h107zM163 0h-75v525h75v-525z"/>
<glyph glyph-name="iacute" horiz-adv-x="251" unicode="í" d="M303 755l-151 -160h-59l103 160h107zM163 0h-75v525h75v-525z"/>
<glyph glyph-name="icircumflex" horiz-adv-x="251" unicode="î" d="M290 580h-65l-101 103l-101 -103h-63l123 160h84zM163 0h-75v525h75v-525z"/>
<glyph glyph-name="idieresis" horiz-adv-x="251" unicode="ï" d="M83 648q0 -22 -16 -38.5t-38 -16.5q-23 0 -39.5 16t-16.5 39t16.5 39.5t39.5 16.5q22 0 38 -16.5t16 -39.5zM277 648q0 -22 -16.5 -38.5t-38.5 -16.5t-38.5 16.5t-16.5 38.5q0 23 16.5 39.5t38.5 16.5t38.5 -16.5t16.5 -39.5zM163 0h-75v525h75v-525z"/>
<glyph glyph-name="eth" horiz-adv-x="566" unicode="ð" d="M436 237q0 91 -43.5 135.5t-116.5 44.5q-68 0 -106.5 -47t-38.5 -133q0 -89 42 -136t110 -47t110.5 47t42.5 136zM511 298q0 -157 -59.5 -233t-170.5 -76q-96 0 -161 65.5t-65 180.5t62 181t148 66q119 0 178 -89q-30 133 -111 196l-56 -63l-51 43l48 54q-44 18 -90 22 v66q73 -5 135 -37l34 37l51 -43l-29 -32q137 -112 137 -338z"/>
<glyph glyph-name="ntilde" horiz-adv-x="567" unicode="ñ" d="M458 728q0 -63 -29 -96.5t-73 -33.5q-40 0 -74 26q-39 30 -51.5 37t-27.5 7q-31 0 -39 -67h-62q0 63 29 96.5t73 33.5q40 0 74 -26q36 -28 50.5 -36t28.5 -8q30 0 39 67h62zM487 0h-75v307q0 84 -30.5 124t-93.5 40q-58 0 -94 -41t-36 -123v-307h-75v525h75v-64 q51 75 145 75q87 0 135.5 -53t48.5 -163v-320z"/>
<glyph glyph-name="ograve" horiz-adv-x="566" unicode="ò" d="M327 595h-59l-151 160h107zM436 264q0 101 -41.5 154t-111.5 53t-111 -53t-41 -154t41 -155.5t111 -54.5t111.5 54.5t41.5 155.5zM511 266q0 -129 -65 -203t-165 -74t-163 72t-63 201t65 201.5t165 72.5t163 -70.5t63 -199.5z"/>
<glyph glyph-name="oacute" horiz-adv-x="566" unicode="ó" d="M445 755l-151 -160h-59l103 160h107zM436 264q0 101 -41.5 154t-111.5 53t-111 -53t-41 -154t41 -155.5t111 -54.5t111.5 54.5t41.5 155.5zM511 266q0 -129 -65 -203t-165 -74t-163 72t-63 201t65 201.5t165 72.5t163 -70.5t63 -199.5z"/>
<glyph glyph-name="ocircumflex" horiz-adv-x="566" unicode="ô" d="M447 585h-65l-101 103l-101 -103h-63l123 160h84zM436 264q0 101 -41.5 154t-111.5 53t-111 -53t-41 -154t41 -155.5t111 -54.5t111.5 54.5t41.5 155.5zM511 266q0 -129 -65 -203t-165 -74t-163 72t-63 201t65 201.5t165 72.5t163 -70.5t63 -199.5z"/>
<glyph glyph-name="otilde" horiz-adv-x="566" unicode="õ" d="M460 728q0 -63 -29 -96.5t-73 -33.5q-40 0 -74 26q-39 30 -51.5 37t-27.5 7q-31 0 -39 -67h-62q0 63 29 96.5t73 33.5q40 0 74 -26q36 -28 50.5 -36t28.5 -8q30 0 39 67h62zM436 264q0 101 -41.5 154t-111.5 53t-111 -53t-41 -154t41 -155.5t111 -54.5t111.5 54.5 t41.5 155.5zM511 266q0 -129 -65 -203t-165 -74t-163 72t-63 201t65 201.5t165 72.5t163 -70.5t63 -199.5z"/>
<glyph glyph-name="odieresis" horiz-adv-x="566" unicode="ö" d="M240 648q0 -22 -16 -38.5t-38 -16.5q-23 0 -39.5 16t-16.5 39t16.5 39.5t39.5 16.5q22 0 38 -16.5t16 -39.5zM434 648q0 -22 -16 -38.5t-39 -16.5t-39 16.5t-16 38.5q0 23 16.5 39.5t38.5 16.5t38.5 -16.5t16.5 -39.5zM436 264q0 101 -41.5 154t-111.5 53t-111 -53 t-41 -154t41 -155.5t111 -54.5t111.5 54.5t41.5 155.5zM511 266q0 -129 -65 -203t-165 -74t-163 72t-63 201t65 201.5t165 72.5t163 -70.5t63 -199.5z"/>
<glyph glyph-name="divide" d="M708 345l-166 -121q-6 -4 -9 -3q-5 2 -2 10l30 80h-161v-179l80 30q8 3 10 -2q1 -3 -3 -9l-121 -166l-121 166q-4 6 -3 9q2 5 10 2l80 -30v179h-165l30 -80q3 -8 -2 -10q-3 -1 -9 3l-166 121l166 121q6 4 9 3q5 -2 2 -10l-30 -80h165v189l-80 -30q-8 -3 -10 2q-1 3 3 9 l121 166l121 -166q4 -6 3 -9q-2 -5 -10 -2l-80 30v-189h161l-30 80q-3 8 2 10q3 1 9 -3z" unicode="÷"/>
<glyph glyph-name="oslash" horiz-adv-x="566" unicode="ø" d="M438 264q0 103 -44 158l-171 -358q27 -12 60 -12q71 0 113 55t42 157zM346 460q-27 13 -63 13q-71 0 -112.5 -53.5t-41.5 -155.5q0 -106 46 -163zM511 266q0 -129 -65 -203t-165 -74q-48 0 -86 16l-26 -55h-66l41 86q-89 71 -89 226q0 129 65 201.5t165 72.5q47 0 89 -17 l27 56h66l-42 -87q86 -71 86 -222z"/>
<glyph glyph-name="ugrave" horiz-adv-x="567" unicode="ù" d="M318 595h-59l-151 160h107zM484 0h-75v64q-51 -75 -145 -75q-87 0 -135.5 53t-48.5 163v320h75v-307q0 -84 30.5 -124t93.5 -40q58 0 94 41t36 123v307h75v-525z"/>
<glyph glyph-name="uacute" horiz-adv-x="567" unicode="ú" d="M451 755l-151 -160h-59l103 160h107zM484 0h-75v64q-51 -75 -145 -75q-87 0 -135.5 53t-48.5 163v320h75v-307q0 -84 30.5 -124t93.5 -40q58 0 94 41t36 123v307h75v-525z"/>
<glyph glyph-name="ucircumflex" horiz-adv-x="567" unicode="û" d="M448 595h-65l-101 103l-101 -103h-63l123 160h84zM484 0h-75v64q-51 -75 -145 -75q-87 0 -135.5 53t-48.5 163v320h75v-307q0 -84 30.5 -124t93.5 -40q58 0 94 41t36 123v307h75v-525z"/>
<glyph glyph-name="udieresis" horiz-adv-x="567" unicode="ü" d="M241 658q0 -22 -16 -38.5t-38 -16.5q-23 0 -39.5 16t-16.5 39t16.5 39.5t39.5 16.5q22 0 38 -16.5t16 -39.5zM435 658q0 -22 -16.5 -38.5t-38.5 -16.5t-38.5 16.5t-16.5 38.5q0 23 16.5 39.5t38.5 16.5t38.5 -16.5t16.5 -39.5zM484 0h-75v64q-51 -75 -145 -75 q-87 0 -135.5 53t-48.5 163v320h75v-307q0 -84 30.5 -124t93.5 -40q58 0 94 41t36 123v307h75v-525z"/>
<glyph glyph-name="yacute" horiz-adv-x="531" unicode="ý" d="M435 745l-151 -160h-59l103 160h107zM491 525l-261 -710h-75l72 191l-187 519h79l128 -381l18 -54l18 53l129 382h79z"/>
<glyph glyph-name="thorn" horiz-adv-x="559" unicode="þ" d="M430 270q0 98 -35 149.5t-98 51.5q-78 0 -139 -76v-262q23 -35 60.5 -57t81.5 -22q130 0 130 216zM504 271q0 -134 -56 -208t-142 -74t-148 70v-210l-75 -42v880l75 42v-268q69 75 158 75q84 0 136 -66.5t52 -198.5z"/>
<glyph glyph-name="OE" horiz-adv-x="1043" unicode="Œ" d="M559 349q0 131 -59.5 211t-152.5 80q-92 0 -149.5 -79t-57.5 -210t59 -211t152 -80q92 0 150 79t58 210zM986 0h-427v116q-36 -62 -83.5 -94.5t-126.5 -32.5q-129 0 -208 101t-79 260t79 260t208 101q139 0 210 -124v113h412v-71h-342v-220h197v-71h-197v-267h357v-71z "/>
<glyph glyph-name="oe" horiz-adv-x="896" unicode="œ" d="M426 264q0 100 -40.5 153.5t-107.5 53.5t-107 -53t-40 -154t40.5 -155.5t106.5 -54.5q67 0 107.5 54.5t40.5 155.5zM769 298q-5 80 -39.5 126.5t-97.5 46.5q-57 0 -93 -44t-43 -129h273zM839 278q0 -23 -3 -41h-340q5 -85 42.5 -134t98.5 -49q40 0 70 11.5t70 38.5 l35 -54q-52 -33 -91 -47t-92 -14q-57 0 -104 36t-67 89q-23 -56 -69 -90.5t-113 -34.5q-95 0 -158 72t-63 201q0 128 64.5 201t160.5 73q65 0 112 -35t68 -89q22 55 67 89.5t106 34.5q96 0 151 -71.5t55 -186.5z"/>
<glyph glyph-name="Scaron" horiz-adv-x="592" unicode="Š" d="M457 914l-123 -160h-84l-123 160h65l101 -103l101 103h63zM522 184q0 -85 -62.5 -140t-169.5 -55q-69 0 -130.5 26.5t-104.5 70.5l52 58q87 -84 186 -84q70 0 110.5 32.5t40.5 87.5q0 49 -36 81.5t-131 66.5q-114 41 -158 85t-44 119q0 83 60 131t159 48q119 0 213 -75 l-50 -61q-79 65 -168 65q-68 0 -102 -29t-34 -74q0 -46 32.5 -75.5t133.5 -65.5q116 -42 159.5 -88t43.5 -124z"/>
<glyph glyph-name="scaron" horiz-adv-x="467" unicode="š" d="M393 755l-123 -160h-84l-123 160h65l101 -103l101 103h63zM408 137q0 -73 -52.5 -110.5t-127.5 -37.5q-101 0 -185 67l44 55q66 -58 143 -58q106 0 106 81q0 32 -26.5 54t-97.5 53q-84 36 -116.5 68.5t-32.5 92.5t46 97t118 37q100 0 168 -56l-42 -55q-60 47 -131 47 q-41 0 -64 -18t-23 -47q0 -32 23 -51.5t93 -50.5q45 -20 67.5 -32.5t46.5 -32.5t33.5 -44.5t9.5 -58.5z"/>
<glyph glyph-name="Ydieresis" horiz-adv-x="652" unicode="Ÿ" d="M283 798q0 -22 -16 -38.5t-38 -16.5q-23 0 -39.5 16t-16.5 39t16.5 39.5t39.5 16.5q22 0 38 -16.5t16 -39.5zM477 798q0 -22 -16.5 -38.5t-38.5 -16.5t-38.5 16.5t-16.5 38.5q0 23 16.5 39.5t38.5 16.5t38.5 -16.5t16.5 -39.5zM605 700l-240 -422v-278h-78v277l-240 423 h89l112 -201q52 -95 79 -150q34 69 79 150l112 201h87z"/>
<glyph glyph-name="circumflex" horiz-adv-x="500" unicode="ˆ" d="M415 595h-65l-101 103l-101 -103h-63l123 160h84z"/>
<glyph glyph-name="tilde" horiz-adv-x="500" unicode="˜" d="M428 728q0 -63 -29 -96.5t-73 -33.5q-40 0 -74 26q-39 30 -51.5 37t-27.5 7q-31 0 -39 -67h-62q0 63 29 96.5t73 33.5q40 0 74 -26q36 -28 50.5 -36t28.5 -8q30 0 39 67h62z"/>
<glyph glyph-name="pi" horiz-adv-x="836" unicode="π" d="M534 427q0 74 -83 74h-96v-149h90q89 0 89 75zM586 426q0 -58 -38 -90.5t-101 -32.5h-92v-154h-53v399h153q58 0 94.5 -31t36.5 -91zM730 350q0 138 -89 226.5t-223 88.5t-223 -88.5t-89 -226.5t89 -226.5t223 -88.5t223 88.5t89 226.5zM779 350q0 -160 -102.5 -260.5 t-258.5 -100.5t-258.5 100.5t-102.5 260.5t102.5 260.5t258.5 100.5t258.5 -100.5t102.5 -260.5z"/>
<glyph glyph-name="endash" horiz-adv-x="422" unicode="–" d="M371 330h-320v71h320v-71z"/>
<glyph glyph-name="emdash" horiz-adv-x="580" unicode="—" d="M529 330h-478v71h478v-71z"/>
<glyph glyph-name="quoteleft" horiz-adv-x="252" unicode="‘" d="M177 700l-15 -223h-102l65 223h52z"/>
<glyph glyph-name="quotesinglbase" horiz-adv-x="252" unicode="‚" d="M192 115l-65 -223h-52l15 223h102z"/>
<glyph glyph-name="quotedblleft" horiz-adv-x="469" unicode="“" d="M177 700l-15 -223h-102l65 223h52zM394 700l-15 -223h-102l65 223h52z"/>
<glyph glyph-name="quotedblright" horiz-adv-x="469" unicode="”" d="M192 700l-65 -223h-52l15 223h102zM409 700l-65 -223h-52l15 223h102z"/>
<glyph glyph-name="dagger" horiz-adv-x="573" unicode="†" d="M518 398h-197v-498h-69v498h-197v66h197v236h69v-236h197v-66z"/>
<glyph glyph-name="daggerdbl" horiz-adv-x="573" unicode="‡" d="M518 136h-197v-236h-69v236h-197v65h197v198h-197v65h197v236h69v-236h197v-65h-197v-198h197v-65z"/>
<glyph glyph-name="ellipsis" horiz-adv-x="720" unicode="…" d="M184 53q0 -26 -19 -45t-45 -19t-45 19t-19 45t19 46t45 20q25 0 44.5 -20t19.5 -46zM424 53q0 -26 -19 -45t-45 -19t-45 19t-19 45t19 46t45 20q25 0 44.5 -20t19.5 -46zM664 53q0 -26 -19 -45t-45 -19t-45 19t-19 45t19 46t45 20q25 0 44.5 -20t19.5 -46z"/>
<glyph glyph-name="perthousand" horiz-adv-x="1345" unicode="‰" d="M834 205q0 70 -25.5 114.5t-68.5 44.5t-68 -43.5t-25 -113.5t25.5 -114t68.5 -44q42 0 67.5 45.5t25.5 110.5zM1231 205q0 70 -25.5 114.5t-68.5 44.5t-68 -43.5t-25 -113.5t25.5 -114t68.5 -44q42 0 67.5 45.5t25.5 110.5zM316 492q0 70 -25.5 114.5t-68.5 44.5 t-68 -43.5t-25 -113.5t25.5 -114t68.5 -44q42 0 67.5 45.5t25.5 110.5zM903 207q0 -96 -45.5 -157t-118.5 -61t-117 59.5t-44 156.5q0 98 44.5 158.5t118.5 60.5q75 0 118.5 -59.5t43.5 -157.5zM1300 207q0 -96 -45.5 -157t-118.5 -61t-117 59.5t-44 156.5q0 98 44.5 158.5 t118.5 60.5q75 0 118.5 -59.5t43.5 -157.5zM735 700l-435 -700h-73l435 700h73zM385 494q0 -96 -45.5 -157t-118.5 -61t-117 59.5t-44 156.5q0 98 44.5 158.5t118.5 60.5q75 0 118.5 -59.5t43.5 -157.5z"/>
<glyph glyph-name="guilsinglleft" horiz-adv-x="363" unicode="‹" d="M318 0h-85l-203 262l203 263h85l-203 -262z"/>
<glyph glyph-name="guilsinglright" horiz-adv-x="363" unicode="›" d="M333 263l-203 -263h-85l203 262l-203 263h85z"/>
<glyph glyph-name="Euro" horiz-adv-x="595" unicode="€" d="M143 249q16 -92 63 -141.5t123 -49.5q52 0 88.5 22t73.5 69l50 -44q-44 -57 -93 -86.5t-121 -29.5q-125 0 -196.5 95t-71.5 265q0 172 73 267t198 95q72 0 120 -26t88 -86l-58 -45q-33 48 -66 68t-86 20q-74 0 -120.5 -47t-63.5 -135h269v-63h-277q-1 -15 -1 -46 q0 -26 1 -39h277v-63h-270z"/>
<glyph glyph-name="trademark" horiz-adv-x="762" unicode="™" d="M302 658h-116v-357h-48v357h-116v42h280v-42zM717 301h-45v308q-5 -21 -24 -67l-105 -252l-102 252q-17 41 -24 67v-308h-45v399h52l94 -239q19 -45 27 -73q5 17 26 73l95 239h51v-399z"/>
<glyph glyph-name="partialdiff" horiz-adv-x="366" unicode="∂" d="M302 172q1 -1 1 -4q0 -2 -3 -7l-117 -176l-117 176q-3 5 -3 7q0 3 1 4q4 6 9 3l75 -30v410l-75 -30q-5 -3 -9 3q-1 1 -1 4q0 2 3 7l117 176l117 -176q3 -4 3 -7t-1 -4q-4 -6 -9 -3l-75 30v-410l75 30q5 3 9 -3z"/>
<glyph glyph-name="product" d="M708 345l-166 -121q-6 -4 -9 -3q-5 2 -2 10l30 80h-161v-179l80 30q8 3 10 -2q1 -3 -3 -9l-121 -166l-121 166q-4 6 -3 9q2 5 10 2l80 -30v179h-165l30 -80q3 -8 -2 -10q-3 -1 -9 3l-166 121l166 121q6 4 9 3q5 -2 2 -10l-30 -80h165v189l-80 -30q-8 -3 -10 2q-1 3 3 9 l121 166l121 -166q4 -6 3 -9q-2 -5 -10 -2l-80 30v-189h161l-30 80q-3 8 2 10q3 1 9 -3z" unicode="∏"/>
<glyph glyph-name="summation" d="M708 345l-166 -121q-6 -4 -9 -3q-5 2 -2 10l30 80h-161v-179l80 30q8 3 10 -2q1 -3 -3 -9l-121 -166l-121 166q-4 6 -3 9q2 5 10 2l80 -30v179h-165l30 -80q3 -8 -2 -10q-3 -1 -9 3l-166 121l166 121q6 4 9 3q5 -2 2 -10l-30 -80h165v189l-80 -30q-8 -3 -10 2q-1 3 3 9 l121 166l121 -166q4 -6 3 -9q-2 -5 -10 -2l-80 30v-189h161l-30 80q-3 8 2 10q3 1 9 -3z" unicode="∑"/>
<glyph glyph-name="minus" d="M708 345l-166 -121q-6 -4 -9 -3q-5 2 -2 10l30 80h-161v-179l80 30q8 3 10 -2q1 -3 -3 -9l-121 -166l-121 166q-4 6 -3 9q2 5 10 2l80 -30v179h-165l30 -80q3 -8 -2 -10q-3 -1 -9 3l-166 121l166 121q6 4 9 3q5 -2 2 -10l-30 -80h165v189l-80 -30q-8 -3 -10 2q-1 3 3 9 l121 166l121 -166q4 -6 3 -9q-2 -5 -10 -2l-80 30v-189h161l-30 80q-3 8 2 10q3 1 9 -3z" unicode="−"/>
<glyph glyph-name="radical" horiz-adv-x="580" unicode="√" d="M535 700l-264 -700h-70l-155 340h80l49 -112q44 -105 60 -151q14 45 54 156l171 467h75z"/>
<glyph glyph-name="infinity" d="M708 345l-166 -121q-6 -4 -9 -3q-5 2 -2 10l30 80h-161v-179l80 30q8 3 10 -2q1 -3 -3 -9l-121 -166l-121 166q-4 6 -3 9q2 5 10 2l80 -30v179h-165l30 -80q3 -8 -2 -10q-3 -1 -9 3l-166 121l166 121q6 4 9 3q5 -2 2 -10l-30 -80h165v189l-80 -30q-8 -3 -10 2q-1 3 3 9 l121 166l121 -166q4 -6 3 -9q-2 -5 -10 -2l-80 30v-189h161l-30 80q-3 8 2 10q3 1 9 -3z" unicode="∞"/>
<glyph glyph-name="approxequal" horiz-adv-x="366" unicode="≈" d="M302 172q1 -1 1 -4q0 -2 -3 -7l-117 -176l-117 176q-3 5 -3 7q0 3 1 4q4 6 9 3l75 -30v555h70v-555l75 30q5 3 9 -3z"/>
<glyph glyph-name="notequal" d="M708 345l-166 -121q-6 -4 -9 -3q-5 2 -2 10l30 80h-161v-179l80 30q8 3 10 -2q1 -3 -3 -9l-121 -166l-121 166q-4 6 -3 9q2 5 10 2l80 -30v179h-165l30 -80q3 -8 -2 -10q-3 -1 -9 3l-166 121l166 121q6 4 9 3q5 -2 2 -10l-30 -80h165v189l-80 -30q-8 -3 -10 2q-1 3 3 9 l121 166l121 -166q4 -6 3 -9q-2 -5 -10 -2l-80 30v-189h161l-30 80q-3 8 2 10q3 1 9 -3z" unicode="≠"/>
<glyph glyph-name="lessequal" d="M708 345l-166 -121q-6 -4 -9 -3q-5 2 -2 10l30 80h-161v-179l80 30q8 3 10 -2q1 -3 -3 -9l-121 -166l-121 166q-4 6 -3 9q2 5 10 2l80 -30v179h-165l30 -80q3 -8 -2 -10q-3 -1 -9 3l-166 121l166 121q6 4 9 3q5 -2 2 -10l-30 -80h165v189l-80 -30q-8 -3 -10 2q-1 3 3 9 l121 166l121 -166q4 -6 3 -9q-2 -5 -10 -2l-80 30v-189h161l-30 80q-3 8 2 10q3 1 9 -3z" unicode="≤"/>
<glyph glyph-name="greaterequal" d="M708 345l-166 -121q-6 -4 -9 -3q-5 2 -2 10l30 80h-161v-179l80 30q8 3 10 -2q1 -3 -3 -9l-121 -166l-121 166q-4 6 -3 9q2 5 10 2l80 -30v179h-165l30 -80q3 -8 -2 -10q-3 -1 -9 3l-166 121l166 121q6 4 9 3q5 -2 2 -10l-30 -80h165v189l-80 -30q-8 -3 -10 2q-1 3 3 9 l121 166l121 -166q4 -6 3 -9q-2 -5 -10 -2l-80 30v-189h161l-30 80q-3 8 2 10q3 1 9 -3z" unicode="≥"/>
<glyph glyph-name="lozenge" d="M708 345l-166 -121q-6 -4 -9 -3q-5 2 -2 10l30 80h-161v-179l80 30q8 3 10 -2q1 -3 -3 -9l-121 -166l-121 166q-4 6 -3 9q2 5 10 2l80 -30v179h-165l30 -80q3 -8 -2 -10q-3 -1 -9 3l-166 121l166 121q6 4 9 3q5 -2 2 -10l-30 -80h165v189l-80 -30q-8 -3 -10 2q-1 3 3 9 l121 166l121 -166q4 -6 3 -9q-2 -5 -10 -2l-80 30v-189h161l-30 80q-3 8 2 10q3 1 9 -3z" unicode="◊"/>
</font>
</defs>
</svg>
