<?xml version="1.0" standalone="no"?> 
<!DOCTYPE svg PUBLIC "-//W3C//DTD SVG 1.1//EN" "http://www.w3.org/Graphics/SVG/1.1/DTD/svg11.dtd" >
<svg xmlns="http://www.w3.org/2000/svg">
<defs>
  <font id="standard-icon-font" horiz-adv-x="100">
    <font-face font-family="standard-icon-font"
      units-per-em="1000" ascent="1000"
      descent="0" />
    <missing-glyph horiz-adv-x="0" />
    <glyph glyph-name="360"
      unicode="&#xF101;"
      horiz-adv-x="1000" d=" M75 650C75 782.0000000000005 265 890 498.9999999999998 890H500H502.0000000000005C736.0000000000002 890 926.0000000000002 782.0000000000005 926.0000000000002 650C926.0000000000002 621.0000000000002 917.0000000000005 592.9999999999995 900 567.9999999999995C825 648.9999999999998 673.9999999999998 705 500 705S175 648.9999999999998 100 567.9999999999995C83.9999999999998 592.9999999999995 75 621.0000000000002 75 650zM918.9999999999998 542.9999999999995L918.9999999999998 542.9999999999995C866.0000000000002 467.9999999999995 751.0000000000002 410 610 390V475L295 292.0000000000005L610 110V203.9999999999998C805 231.9999999999993 950 331.0000000000003 950 450V452.9999999999995V622.9999999999995H950C947.0000000000005 596.0000000000002 937.0000000000005 568.9999999999998 918.9999999999998 542.9999999999995L918.9999999999998 542.9999999999995zM242.0000000000005 242.9999999999996C126.0000000000002 288.9999999999998 50 365 50 450.9999999999991V453.9999999999986V623.9999999999986H50C52.0000000000005 595.9999999999991 62.9999999999996 568.9999999999986 80 543.9999999999986V543.9999999999986L80 543.9999999999986C112.0000000000005 496.9999999999982 168.9999999999998 456.9999999999982 241.0000000000003 428.9999999999987V242.9999999999996z" />
    <glyph glyph-name="adchoice"
      unicode="&#xF102;"
      horiz-adv-x="850" d=" M50 0C40 0 30 0 20 10C10 19.9999999999999 0 30.0000000000001 0 50V950C0 970 10 990 30 1000C40 1000 60 1000 80 990L830.0000000000001 540C840 540 850 520 850 500S840 460 830.0000000000001 450L340 160C320 150 300 150 290 160C270 169.9999999999999 260 190 260 210V440C260 470 290 500 320 500S370 480 370 450V300L700 500L110 850V150L150 169.9999999999999C170 190 200 180.0000000000001 220 150C230 130.0000000000001 230 90 200 80.0000000000001L80 10C70 0 60 0 50 0z M270 600C270 572.3857625084604 292.3857625084604 550 320 550C347.6142374915397 550 370 572.3857625084604 370 600C370 627.6142374915396 347.6142374915397 650 320 650C292.3857625084604 650 270 627.6142374915396 270 600z" />
    <glyph glyph-name="attach"
      unicode="&#xF103;"
      horiz-adv-x="1000" d=" M195 140C105 230 110 360 210 460C210 460 330 580 400 650C430.0000000000001 680 465 695 505 690C540 690 575 675 600 645C625 620 640 585 645 550C645 509.9999999999999 630 475 605 445L425 264.9999999999999L370 320L550 494.9999999999999C565.0000000000001 509.9999999999999 570.0000000000001 524.9999999999999 570.0000000000001 539.9999999999999S560 569.9999999999998 550 584.9999999999998S515 609.9999999999999 500 609.9999999999999C485 609.9999999999999 464.9999999999999 604.9999999999999 455 589.9999999999999C390 524.9999999999998 265 399.9999999999999 265 399.9999999999999C195 335 190 249.9999999999999 250 195C275 169.9999999999999 310 154.9999999999999 345 154.9999999999999C385 154.9999999999999 425 174.9999999999999 459.9999999999999 210L730 480C775 525 800 575 800 630S780 735 735.0000000000001 780C690.0000000000001 825 640.0000000000001 845 590.0000000000001 845S485.0000000000001 820 440.0000000000001 770L180.0000000000001 510L120.0000000000001 565L380.0000000000001 820C440.0000000000001 880 510 915 585.0000000000001 915S730.0000000000001 885 790 825C850.0000000000001 765 880 695 875 620S840 475 780 419.9999999999999L510 149.9999999999999C460 99.9999999999999 405 75 345 70C345 70 340 70 340 70C285 80 235 100 195 139.9999999999999z" />
    <glyph glyph-name="calculator"
      unicode="&#xF104;"
      horiz-adv-x="1000" d=" M793.75 1000H206.25C140.625 1000 90.625 946.875 90.625 884.375V115.625C90.625 49.9999999999999 143.75 0 206.25 0H796.875C862.5 0 912.5 53.125 912.5 115.625V884.375C909.375 946.875 859.375 1000 793.75 1000zM821.875 115.625C821.875 100 809.3750000000001 87.5 793.7500000000001 87.5H206.25C190.625 87.5 178.125 100 178.125 115.625V884.375C178.125 900 190.625 912.5 206.25 912.5H796.875C812.5 912.5 825 900 825 884.375V115.625zM284.375 715.625H712.4999999999999V803.125H284.375V715.625zM340.625 303.125C312.5 303.125 287.5000000000001 278.125 287.5000000000001 250S312.5000000000001 196.875 340.625 196.875C368.75 196.875 393.75 221.875 393.75 250S368.75 303.125 340.625 303.125zM500 303.125C471.875 303.125 446.875 278.125 446.875 250S471.8750000000001 196.875 500 196.875C528.125 196.875 553.125 221.875 553.125 250S528.125 303.125 500 303.125zM659.375 303.125C631.2500000000001 303.125 606.2500000000001 278.125 606.2500000000001 250S631.2500000000001 196.875 659.375 196.875C687.5 196.875 712.5 221.875 712.5 250S690.625 303.125 659.375 303.125zM340.625 465.625C312.5 465.625 287.5000000000001 440.6249999999999 287.5000000000001 412.5S312.5000000000001 359.375 340.625 359.375C368.75 359.375 393.75 384.375 393.75 412.5S368.75 465.625 340.625 465.625zM500 465.625C471.875 465.625 446.875 440.6249999999999 446.875 412.5S471.8750000000001 359.375 500 359.375C528.125 359.375 553.125 384.375 553.125 412.5S528.125 465.625 500 465.625zM659.375 465.625C631.2500000000001 465.625 606.2500000000001 440.6249999999999 606.2500000000001 412.5S631.2500000000001 359.375 659.375 359.375C687.5 359.375 712.5 384.375 712.5 412.5S690.625 465.625 659.375 465.625zM340.625 625C312.5 625 287.5000000000001 600 287.5000000000001 571.875S312.5000000000001 518.75 340.625 518.75C368.75 518.75 393.75 543.75 393.75 571.875S368.75 625 340.625 625zM500 625C471.875 625 446.875 600 446.875 571.875S471.8750000000001 518.75 500 518.75C528.125 518.75 553.125 543.75 553.125 571.875S528.125 625 500 625zM659.375 625C631.2500000000001 625 606.2500000000001 600 606.2500000000001 571.875S631.2500000000001 518.75 659.375 518.75C687.5 518.75 712.5 543.75 712.5 571.875S690.625 625 659.375 625z" />
    <glyph glyph-name="check"
      unicode="&#xF105;"
      horiz-adv-x="1000" d=" M155 545L215 595L445 304.9999999999999L775 835L840.0000000000001 795L455.0000000000001 169.9999999999999L155.0000000000001 545z" />
    <glyph glyph-name="close"
      unicode="&#xF106;"
      horiz-adv-x="1000" d=" M555 500L765 290L710 235L500 445L290.0000000000001 235L235.0000000000001 290L445.0000000000001 500L235.0000000000001 710L290.0000000000001 765L500.0000000000001 555L710.0000000000001 765L765.0000000000001 709.9999999999999L555.0000000000001 499.9999999999999z" />
    <glyph glyph-name="compass"
      unicode="&#xF107;"
      horiz-adv-x="1000" d=" M875 500C875 400 835 304.9999999999999 765 235S600 125 500 125C295.0000000000001 125 125 295 125 500S295.0000000000001 875 500 875C710 875 875 705 875 500zM800 500C800 665 665 800 500 800S200 665 200 500S335 200 500 200C580 200 655 230 710 289.9999999999999S799.9999999999999 419.9999999999999 799.9999999999999 499.9999999999999zM630 655L660 630L555 445.0000000000001L370.0000000000001 345.0000000000001L340.0000000000001 370.0000000000001L445.0000000000001 555.0000000000001L630.0000000000001 655.0000000000001zM535 500C535 520 520 535 500 535S464.9999999999999 520 464.9999999999999 500S480 465 500 465S535 480 535 500z" />
    <glyph glyph-name="contract"
      unicode="&#xF108;"
      horiz-adv-x="1000" d=" M125 485H485V125H405V350L160 105L105 160L350 405H125V485zM650 595H875V515H515V875H595V649.9999999999999L840 894.9999999999999L895 839.9999999999999L650 595z" />
    <glyph glyph-name="down-arrow"
      unicode="&#xF109;"
      horiz-adv-x="1000" d=" M910 505L500 95L90 504.9999999999999L145 560L460 244.9999999999999V904.9999999999998H540V244.9999999999999L855 559.9999999999999L910 504.9999999999999z" />
    <glyph glyph-name="download"
      unicode="&#xF10A;"
      horiz-adv-x="1000" d=" M885 430V195.0000000000001H115V430H195V275H804.9999999999999V430H884.9999999999999zM500 340L270 570L325 625L460 490V805H540V490L675 625L730.0000000000001 570L500.0000000000001 340z" />
    <glyph glyph-name="edit"
      unicode="&#xF10B;"
      horiz-adv-x="1000" d=" M710 565L765 510L450 200L65 70L200 450L510 760L565.0000000000001 705L265.0000000000001 405L210.0000000000001 250L250.0000000000001 210L410.0000000000001 265L710 565zM315 350C315 360 320 370 325 380L610 665L665 610L380.0000000000001 325C370.0000000000001 315 360.0000000000001 315 350.0000000000001 315S330.0000000000001 320 325.0000000000001 325C315.0000000000001 330 315.0000000000001 340 315.0000000000001 350zM930 720C930 695 920 670 900 650L805 555L550 810L650 900C670 920 695.0000000000001 930 720 930S775 920 790 900L900 789.9999999999999C920 770 930 745 930 720zM855 720C855 725 855 730 850 735L740 845C735 850 730 850 725 850S715 850 710 845L669.9999999999999 805L815 660L855 700C850 705 855 715 855 720z" />
    <glyph glyph-name="expand"
      unicode="&#xF10C;"
      horiz-adv-x="1000" d=" M505 450L260 205H485V125H125V485H205V260L450 505L505 450zM875 875V515H795V740L550 495L495.0000000000001 550L740 795H515V875H875z" />
    <glyph glyph-name="feature-engine"
      unicode="&#xF10D;"
      horiz-adv-x="1000" d=" M925 675C905 675 885 660 885 640H850L715 850C710 860 695 870 679.9999999999999 870H195C175 865 155 850 155 825V765L99.9999999999999 720H40C20 720 0 700 0 680V335.0000000000001C0 315.0000000000001 20 295 40 295H94.9999999999999L280 145C285 140 295 135 305 135H825C845 135 865 155 865 175V240H885C885 240 885 240 885 240C885 220 905 200 925 200C975.0000000000002 200 985.0000000000002 264.9999999999999 990 294.9999999999999C995 335 1000 384.9999999999999 1000 434.9999999999999C1000 675 950 675 925 675zM825 320C804.9999999999999 320 784.9999999999999 299.9999999999999 784.9999999999999 279.9999999999999V214.9999999999999H319.9999999999999L134.9999999999999 364.9999999999999C129.9999999999999 369.9999999999999 119.9999999999999 374.9999999999999 109.9999999999999 374.9999999999999H79.9999999999999V639.9999999999999H109.9999999999999C119.9999999999999 639.9999999999999 124.9999999999999 644.9999999999999 134.9999999999999 649.9999999999999L219.9999999999999 714.9999999999999C229.9999999999999 725 235 735 235 744.9999999999999V784.9999999999999H659.9999999999999L799.9999999999999 574.9999999999999C804.9999999999999 564.9999999999999 820 554.9999999999999 835 554.9999999999999H914.9999999999998C924.9999999999998 489.9999999999999 924.9999999999998 384.9999999999999 914.9999999999998 319.9999999999999H825z M675 540H645C640 555 635 570 625 580L650 600C665 615 665 640 650 655S610 670 595 655L575 635C559.9999999999999 645 549.9999999999999 650 534.9999999999999 655V685C534.9999999999999 705 514.9999999999999 725 494.9999999999999 725S450 704.9999999999999 450 685V655C435 649.9999999999999 420 644.9999999999999 410 639.9999999999999L390 660C375 675 350 675 335 660C315 644.9999999999999 315 620 335 600L355 579.9999999999999C345 569.9999999999999 340 554.9999999999999 335 540H305C285 540 265 519.9999999999999 265 499.9999999999999S285 459.9999999999999 305 459.9999999999999H335C340 444.9999999999999 345 429.9999999999998 355 419.9999999999998L335 399.9999999999998C320 384.9999999999998 320 359.9999999999998 335 344.9999999999998C345 334.9999999999998 355 334.9999999999998 365 334.9999999999998S385 339.9999999999998 395 344.9999999999998L415.0000000000001 364.9999999999998C420.0000000000001 354.9999999999998 435.0000000000001 349.9999999999998 450.0000000000001 344.9999999999998V314.9999999999998C450.0000000000001 294.9999999999997 470.0000000000001 274.9999999999997 490.0000000000001 274.9999999999997S530 294.9999999999997 530 314.9999999999998V344.9999999999998C545 349.9999999999998 560 354.9999999999998 570.0000000000001 364.9999999999998L590.0000000000001 344.9999999999998C600.0000000000001 334.9999999999998 610.0000000000001 334.9999999999998 620.0000000000001 334.9999999999998S640.0000000000001 339.9999999999998 650.0000000000001 344.9999999999998C665.0000000000001 359.9999999999998 665.0000000000001 384.9999999999998 650.0000000000001 399.9999999999998L630.0000000000001 419.9999999999998C640.0000000000001 434.9999999999999 645.0000000000001 444.9999999999999 650.0000000000001 459.9999999999999H680.0000000000001C700.0000000000002 459.9999999999999 720.0000000000002 479.9999999999999 720.0000000000002 499.9999999999999S700.0000000000002 539.9999999999999 675.0000000000001 539.9999999999999zM550 440C550 440 550 440 550 440C535 424.9999999999999 515 414.9999999999999 490.0000000000001 414.9999999999999C445.0000000000001 414.9999999999999 410.0000000000001 450 410.0000000000001 494.9999999999999C410.0000000000001 494.9999999999999 410.0000000000001 494.9999999999999 410.0000000000001 494.9999999999999S410.0000000000001 494.9999999999999 410.0000000000001 494.9999999999999C410.0000000000001 539.9999999999999 445.0000000000001 574.9999999999999 490.0000000000001 574.9999999999999S570.0000000000001 540 570.0000000000001 494.9999999999999C575.0000000000001 474.9999999999999 565.0000000000001 454.9999999999999 550 439.9999999999999C550 439.9999999999999 550 439.9999999999999 550 439.9999999999999z" />
    <glyph glyph-name="footer-facebook"
      unicode="&#xF10E;"
      horiz-adv-x="1000" d=" M375 460H250V625H375V770C375 890 450 1000 625 1000C695.0000000000001 1000 750 990 750 990L745 835H635C570.0000000000001 835 560 800 560 750V625H750L735 460H560V0H375.0000000000001V460z" />
    <glyph glyph-name="footer-google-plus"
      unicode="&#xF10F;"
      horiz-adv-x="1000" d=" M525 255C525 160 435.0000000000001 65 265 65C120 65 0 125 0 220S110 409.9999999999999 255 409.9999999999999C270 409.9999999999999 285.0000000000001 409.9999999999999 300 409.9999999999999C280 429.9999999999999 265 455 265 480C265 495 270 515 280 530C270 530 265 530 255 530C135 530 55 615 55 720S165 910 285.0000000000001 910C350.0000000000001 910 545 910 545 910L485.0000000000001 870H405C460 850 490.0000000000001 785 490.0000000000001 720C490.0000000000001 665 460.0000000000001 615 415.0000000000001 585C375.0000000000001 550 365.0000000000001 540 365.0000000000001 509.9999999999999C365.0000000000001 485 410.0000000000001 445 435.0000000000001 429.9999999999999C500 374.9999999999999 525 330 525 254.9999999999999zM455 245C455 255 455 260 455 270C445 315.0000000000001 405 335 350.0000000000001 375C330 380 310.0000000000001 385 285.0000000000001 385C185 385 95 325 95 250S165 110 265 110C410.0000000000001 110 455 169.9999999999999 455 245zM395 715C385 800 320 875 250 875C185 875 140 810 150 720S225 560 295 555C360 555 405 625 395 715zM1000 725H835V560H794.9999999999999V725H629.9999999999999V765H794.9999999999999V935H835V770H1000V725z" />
    <glyph glyph-name="footer-instagram"
      unicode="&#xF110;"
      horiz-adv-x="1000" d=" M1000 685H695.0000000000001C645 735 575.0000000000001 770 500 770S355 740 305 685H0V855C0 935 65 1000 145 1000H855C934.9999999999998 1000 1000 935 1000 855V685zM1000 605V145C1000 65.0000000000001 935 0 855 0H145C65 0 0 65 0 145V605H250C235 570 230 535 230 500.0000000000001C230 350.0000000000001 350 230 500 230S770 350 770 500C770 535 765 570 750 605H1000zM315 500C315 605 400 685 505 685S695.0000000000001 600 695.0000000000001 500C695.0000000000001 395 610.0000000000001 310 505.0000000000001 310C395.0000000000001 315.0000000000001 315.0000000000001 395 315.0000000000001 500.0000000000001z" />
    <glyph glyph-name="footer-pinterest"
      unicode="&#xF111;"
      horiz-adv-x="1000" d=" M885 670C885 445 760 274.9999999999999 575 274.9999999999999C514.9999999999999 274.9999999999999 454.9999999999999 304.9999999999999 435 345C435 345 405 215 395 190C370 100 300 10 295 4.9999999999999S280 0 280 4.9999999999999C280 14.9999999999999 259.9999999999999 129.9999999999999 280 224.9999999999999C290 269.9999999999999 355 534.9999999999999 355 534.9999999999999S334.9999999999999 574.9999999999998 334.9999999999999 629.9999999999999C334.9999999999999 714.9999999999999 384.9999999999999 779.9999999999999 444.9999999999999 779.9999999999999C494.9999999999999 779.9999999999999 524.9999999999999 739.9999999999999 524.9999999999999 694.9999999999999C524.9999999999999 644.9999999999999 489.9999999999999 564.9999999999999 474.9999999999999 489.9999999999999C459.9999999999999 429.9999999999999 504.9999999999999 379.9999999999999 565 379.9999999999999C674.9999999999999 379.9999999999999 744.9999999999999 519.9999999999999 744.9999999999999 684.9999999999999C744.9999999999999 809.9999999999999 659.9999999999999 904.9999999999998 504.9999999999999 904.9999999999998C334.9999999999999 899.9999999999999 224.9999999999999 769.9999999999999 224.9999999999999 624.9999999999999C224.9999999999999 574.9999999999999 239.9999999999999 539.9999999999999 264.9999999999999 509.9999999999999C274.9999999999999 494.9999999999999 274.9999999999999 494.9999999999999 274.9999999999999 479.9999999999999C274.9999999999999 469.9999999999999 264.9999999999999 444.9999999999999 264.9999999999999 434.9999999999999C259.9999999999999 419.9999999999998 249.9999999999999 414.9999999999998 234.9999999999999 419.9999999999998C149.9999999999999 454.9999999999999 114.9999999999999 544.9999999999998 114.9999999999999 639.9999999999998C114.9999999999999 804.9999999999998 249.9999999999999 999.9999999999998 524.9999999999998 999.9999999999998C744.9999999999998 999.9999999999998 884.9999999999998 839.9999999999998 884.9999999999998 669.9999999999998z" />
    <glyph glyph-name="footer-twitter"
      unicode="&#xF112;"
      horiz-adv-x="1000" d=" M900 705C900 695 900 690 900 680C900 409.9999999999999 695.0000000000001 95 315.0000000000001 95C200.0000000000001 95 90.0000000000001 120 1e-13 179.9999999999999C15.0000000000001 179.9999999999999 30.0000000000001 174.9999999999999 50.0000000000001 174.9999999999999C145.0000000000001 174.9999999999999 235.0000000000001 215 305.0000000000001 269.9999999999999C215.0000000000001 269.9999999999999 140 329.9999999999999 115.0000000000001 409.9999999999999C130.0000000000001 409.9999999999999 140 404.9999999999999 155.0000000000001 404.9999999999999C175.0000000000001 404.9999999999999 190.0000000000001 404.9999999999999 210.0000000000001 409.9999999999999C115.0000000000001 429.9999999999999 45 509.9999999999999 45 610C45 610 45 610 45 610C70 605 100 595 135 595C80 629.9999999999999 45 695 45 765C45 805 55 835 75 865C175.0000000000001 740 325.0000000000001 665 495 655C490 670 485 685 485 699.9999999999999C485 814.9999999999999 575 904.9999999999998 690 904.9999999999998C750 904.9999999999998 799.9999999999999 879.9999999999999 840 839.9999999999999C885 849.9999999999999 929.9999999999998 864.9999999999999 970 889.9999999999999C955 844.9999999999999 924.9999999999998 799.9999999999999 880 774.9999999999999C920 779.9999999999999 960 789.9999999999999 1000 804.9999999999999C970 769.9999999999999 940 734.9999999999999 900 704.9999999999998z" />
    <glyph glyph-name="footer-youtube"
      unicode="&#xF113;"
      horiz-adv-x="1000" d=" M1000 500C1000 145 1000 145 500 145S0 145 0 500S0 855 500 855S1000 855 1000 500zM690 500L375 690V315L690 500z" />
    <glyph glyph-name="full-gallery"
      unicode="&#xF114;"
      horiz-adv-x="1000" d=" M95 190V810H905V184.9999999999999H95zM830 265V735H170V265H830zM305 530C265 530 235 560 235 600S265 670 305 670C345 670 375 640 375 600S345 530 305 530zM260 330L400 515L465 475L570.0000000000001 635L740.0000000000001 330.0000000000001H655.0000000000001L565.0000000000001 490.0000000000001L485.0000000000002 370.0000000000001L420.0000000000002 415.0000000000001L355.0000000000002 330.0000000000003H260.0000000000001z" />
    <glyph glyph-name="gallery-1"
      unicode="&#xF115;"
      horiz-adv-x="1000" d=" M125 125H875V425H125V125zM125 575H875V875H125V575z" />
    <glyph glyph-name="gallery-3"
      unicode="&#xF116;"
      horiz-adv-x="1000" d=" M125 125H330V330H125V125zM400 125H600.0000000000001V330H400.0000000000001V125zM670 125H875V330H670V125zM125 400H330V600H125V400zM400 400H600.0000000000001V600H400.0000000000001V400zM670 400H875V600H670V400zM125 670H330V875H125V670zM400 670H600.0000000000001V875H400.0000000000001V670zM670 670H875V875H670V670z" />
    <glyph glyph-name="gallery-close"
      unicode="&#xF117;"
      horiz-adv-x="1000" d=" M995 971.65625L971.65625 995L500 523.34375L28.34375 995L5 971.65625L476.65625 500L5 28.34375L28.34375 5L500 476.65625L971.65625 5L995 28.34375L523.34375 500z" />
    <glyph glyph-name="gallery-left"
      unicode="&#xF118;"
      horiz-adv-x="1000" d=" M736.65625 5L758.3125 28.34375L286.6562500000001 500L758.3125 971.65625L736.65625 995L241.6562500000001 500z" />
    <glyph glyph-name="gallery-right"
      unicode="&#xF119;"
      horiz-adv-x="1000" d=" M263.34375 995L241.6875 971.65625L713.34375 500L241.6875 28.34375L263.34375 5L758.3437499999999 500z" />
    <glyph glyph-name="globe"
      unicode="&#xF11A;"
      horiz-adv-x="1000" d=" M500 1000C500 1000 500 1000 500 1000C500 1000 500 1000 500 1000C500 1000 500 1000 500 1000C225 1000 0 775 0 500S225 0 500 0C500 0 500 0 500 0C500 0 500 0 500 0C500 0 500 0 500 0C775 0 1000 225 1000 500S775 1000 500 1000M900 550H737.5C731.2500000000001 675 706.25 787.5 662.5000000000001 868.75C793.75 812.5 881.25 693.75 900 550M500 93.75C500 93.75 500 93.75 500 93.75C443.75 93.75 362.5 231.25 356.25 450H643.75C631.25 231.25 556.25 93.75 500 93.75M356.25 550C362.5 768.75 443.75 900 500 906.25C500 906.25 500 906.25 500 906.25C556.25 906.25 631.25 768.75 643.75 550H356.25zM331.25 868.75C287.5 787.5 262.5 681.25 256.25 550H100C118.75 693.75 206.25 806.25 331.25 868.75M100 450H256.25C262.5 325 287.5 212.4999999999999 331.25 131.25C206.25 193.75 118.75 306.25 100 450M668.75 131.25C712.4999999999999 212.5 737.4999999999999 318.75 743.7499999999999 450H906.2499999999998C881.25 306.25 793.75 187.5 668.75 131.25" />
    <glyph glyph-name="heart"
      unicode="&#xF11B;"
      horiz-adv-x="1000" d=" M795 425C650 275 530 150 530 150L500 120L470 150C470 150 350 275 205 425C120 515 105 600 110 660C115 725 145 790 190 830C230 865 285 880 335 880C415 880 464.9999999999999 845 495 805C525 845 575 880 655 880C710.0000000000001 880 760 860 800 830C845.0000000000001 790 875 730 880 660C895 600 880 515 795 425zM810 655C805 710 780 750 760 765C735 785 695.0000000000001 800 660 800C550 800 540 700 535 690C535 675 525 660 495.0000000000001 660C470.0000000000001 660 455.0000000000001 675 455.0000000000001 690C460.0000000000001 705 450.0000000000001 800 340.0000000000001 800C305.0000000000001 800 270.0000000000001 785 240.0000000000001 765C215.0000000000001 745 190.0000000000001 705 190.0000000000001 655C185.0000000000001 615 195.0000000000001 550 265.0000000000001 480C370.0000000000001 370 460.0000000000001 280 500 235C545 280 635 375 735 480C804.9999999999999 550 815 615 809.9999999999999 655z" />
    <glyph glyph-name="inventory-car"
      unicode="&#xF11C;"
      horiz-adv-x="1000" d=" M920.9375 100H841.8749999999999C811.65625 100 786.0624999999999 130.2187499999999 772.0937499999999 169.78125H230.2187499999999C216.2499999999999 130.25 190.6874999999999 100 160.4374999999999 100H81.3749999999999C67.4374999999999 100 46.4999999999999 104.65625 25.5624999999999 139.53125C-9.3125000000001 218.59375 -13.9687500000001 483.71875 30.2187499999999 595.34375C4.6249999999999 625.5625 -9.3125000000001 665.125 4.6249999999999 709.28125C18.5937499999999 748.8125 60.4374999999999 774.40625 104.6249999999999 774.40625C118.5624999999999 774.40625 130.2187499999999 774.40625 139.4999999999999 769.75C185.9999999999999 860.4375 220.9062499999999 895.34375 260.4374999999999 895.34375C304.6249999999999 900 416.2499999999999 900 495.3124999999999 900S686 900 734.8437499999999 895.34375V895.34375C774.3749999999999 895.34375 804.6249999999999 860.46875 848.7812499999999 769.75C862.7499999999999 774.40625 874.3749999999999 774.40625 888.3125 774.40625C939.46875 774.40625 979 748.8125 988.3124999999998 709.28125C1002.28125 665.09375 988.3124999999998 618.59375 962.71875 588.34375C1006.9062499999998 479.0312499999999 1006.9062499999998 213.9374999999999 972.0312499999998 132.53125C955.7499999999998 104.625 930.1562499999998 99.9687499999999 920.8749999999998 99.9687499999999zM851.15625 179.0625H906.96875C932.5625 244.1875 937.1875 513.9375 893 569.75C883.6875000000001 579.0625 883.6875000000001 595.34375 883.6875000000001 609.28125S893 634.875 904.6250000000002 644.15625C913.9375000000002 648.8125 930.2187500000002 669.75 918.5937500000002 683.6875C918.5937500000002 688.34375 904.6250000000002 693 888.3750000000001 693C879.0625000000002 693 874.4062500000001 693 874.4062500000001 688.3437500000001C865.0937500000002 679.0312500000001 851.1562500000001 674.3750000000001 837.1875000000002 674.3750000000001C816.2500000000001 674.3750000000001 802.3125000000002 683.6875000000001 797.6562500000002 699.9687500000001C753.4687500000001 795.3125000000001 732.5312500000002 804.6250000000001 732.5312500000002 809.2812500000001C690.6562500000002 813.9375000000001 602.3125000000002 813.9375000000001 502.3125000000002 813.9375000000001C397.6562500000002 813.9375000000001 311.6250000000002 813.9375000000001 272.0937500000001 809.2812500000001C267.4375000000002 809.2812500000001 246.5000000000002 795.3125000000001 206.9687500000002 704.6250000000002C197.6562500000002 690.6562500000002 181.3750000000002 679.0312500000002 167.4375000000002 679.0312500000002V679.0312500000002C153.4687500000002 679.0312500000002 141.8437500000002 683.6875000000002 132.5625000000002 693.0000000000002C132.5625000000002 693.0000000000002 127.9062500000002 693.0000000000002 118.6250000000001 693.0000000000002C104.6875000000001 693.0000000000002 93.0312500000001 688.3437500000002 88.4062500000001 683.6875000000002C83.7500000000001 662.7500000000002 93.0625000000001 648.8125000000002 102.3437500000001 644.1562500000002S123.2812500000001 623.2187500000002 123.2812500000001 609.2812500000002C123.2812500000001 595.3125000000002 123.2812500000001 583.6875000000001 113.9687500000001 569.7500000000002C69.7812500000001 513.9375000000002 74.4375000000001 239.5312500000003 100.0312500000001 179.0625000000001H155.8437500000001C155.8437500000001 186.0312500000001 160.5000000000001 195.3437500000001 160.5000000000001 209.2812500000001C160.5000000000001 230.2187500000001 181.4375000000001 244.1562500000001 200.0312500000001 244.1562500000001V244.1562500000001H800.0312500000001C820.9687500000001 244.1562500000001 834.9062500000001 230.1875000000001 839.5625000000001 209.2812500000001C841.8750000000001 195.3125000000001 846.5312500000001 186.0312500000001 851.1875000000001 179.0625000000001z" />
    <glyph glyph-name="inventory-seat"
      unicode="&#xF11D;"
      horiz-adv-x="1000" d=" M816.28125 288.375C776.7499999999999 327.9062500000001 720.9375 344.1875000000001 660.4687499999999 337.21875L474.4062499999999 323.25C474.4062499999999 332.5625 474.4062499999999 344.1875000000001 469.7499999999999 353.46875V358.125L360.4375 588.34375C346.46875 618.5625 325.5625 644.15625 290.65625 662.75L295.3125 667.40625C320.90625 697.625 330.1874999999999 732.53125 330.1874999999999 767.40625C325.53125 841.8125 255.7812499999999 902.28125 181.3437499999999 897.625C160.4062499999999 897.625 146.4687499999999 888.3125 137.1562499999999 872.03125S116.2187499999999 841.8125 120.8749999999999 823.1875L134.8124999999999 644.125V639.4687500000001L278.9999999999999 130.1562500000002C283.6562499999999 116.1875000000002 292.9687499999999 104.5625000000002 313.8749999999999 104.5625000000002H844.0937499999999C865.0312499999999 104.5625000000002 878.9687499999999 118.5312500000002 878.9687499999999 139.4375000000002C881.2812499999999 192.9375000000002 855.7187499999999 246.4062500000001 816.1874999999999 288.2812500000003zM195.34375 832.5625C230.2187500000001 832.5625 260.46875 802.34375 265.125 767.4375C265.125 746.5 260.46875 732.5625 251.1562500000001 716.28125C241.8437500000001 702.3125 225.5625000000001 695.34375 206.96875 690.6875L195.34375 832.5625zM295.34375 562.78125L404.6562500000001 332.5625C409.3125 306.96875 400.0000000000001 272.09375 379.0625000000001 241.875C365.0937500000001 220.9374999999999 348.8437500000001 202.3437499999999 334.8750000000001 190.7187499999999L216.2812500000001 616.3125C269.7812500000001 607 290.6875000000001 581.4375 295.3437500000001 562.8125zM420.9375 172.09375C430.25 181.40625 434.90625 193.0312500000001 441.875 202.3125C451.1875 216.28125 455.84375 232.53125 467.46875 246.5L672.125 267.4375000000001C707 272.0937500000001 741.90625 258.1250000000001 772.125 232.5625000000001C793.0625 218.5937500000001 802.3437499999999 197.6875000000001 806.9999999999999 172.0937500000001C804.6874999999999 172.0937500000001 420.9375 172.0937500000001 420.9375 172.0937500000001z" />
    <glyph glyph-name="key"
      unicode="&#xF11E;"
      horiz-adv-x="1000" d=" M970 430C934.9999999999998 375 905 345.0000000000001 905 345.0000000000001L880 315.0000000000001L805 385L735.0000000000001 320.0000000000001L670.0000000000001 385L615.0000000000001 325H520.0000000000001C465.0000000000001 260 385.0000000000001 215 295.0000000000002 215C130.0000000000002 210 2e-13 340 2e-13 500S130.0000000000002 790 290.0000000000002 790C380.0000000000001 790 465.0000000000001 745 515.0000000000001 680H850.0000000000001C910.0000000000002 680 955.0000000000002 655 980.0000000000002 605C1010 550 1005.0000000000002 485 970.0000000000002 429.9999999999999zM915 570C900 590 880 600 855 600H475C440 665 370 710 290 710C175 710 80 615 80 500S175 290 290 290C370 290 440 335.0000000000001 475 400H580L664.9999999999999 495L734.9999999999999 425L804.9999999999999 490L869.9999999999999 425C879.9999999999999 440.0000000000001 889.9999999999999 455.0000000000001 904.9999999999998 475.0000000000001C924.9999999999998 505.0000000000001 929.9999999999998 540.0000000000001 914.9999999999998 570zM295 500C295 460 265 429.9999999999999 225 429.9999999999999S155 460 155 500S185 570 225 570S295 540 295 500z" />
    <glyph glyph-name="left-arrow"
      unicode="&#xF11F;"
      horiz-adv-x="1000" d=" M905 460H245L560 145L505 90L95 500L505 910L560 855L245.0000000000001 540H905V460z" />
    <glyph glyph-name="link"
      unicode="&#xF120;"
      horiz-adv-x="1000" d=" M470 345L530 405C545 380 555 350 555 320.0000000000001C555 275 540 235.0000000000001 510 205.0000000000001L455 150C420.0000000000001 120 380 100 335 100S250 115 220 150L150 220C85 284.9999999999999 85 385 150 450L205 504.9999999999999C235.0000000000001 535 275 550 320 550C350 550 380 540 405 524.9999999999999L350.0000000000001 469.9999999999999C340 474.9999999999999 330 474.9999999999999 320.0000000000001 474.9999999999999C295.0000000000001 474.9999999999999 275.0000000000001 464.9999999999999 260.0000000000001 449.9999999999999L205.0000000000001 394.9999999999998C170.0000000000001 359.9999999999998 170.0000000000001 309.9999999999999 205.0000000000001 274.9999999999998L280.0000000000001 204.9999999999999C295.0000000000001 189.9999999999999 320.0000000000001 179.9999999999998 340.0000000000001 179.9999999999998S385.0000000000001 189.9999999999999 400.0000000000001 204.9999999999999L450.0000000000001 259.9999999999999C475.0000000000001 279.9999999999999 480.0000000000001 315 470.0000000000001 344.9999999999999zM660 605L605 660L335 389.9999999999999L390 334.9999999999999L659.9999999999999 604.9999999999999zM850 550L794.9999999999999 495C764.9999999999999 465 724.9999999999999 445 679.9999999999999 445C649.9999999999999 445 619.9999999999999 455 595 470L655 530C665 525 675 525 685 525C710.0000000000001 525 730.0000000000001 535 745.0000000000001 550L800.0000000000001 605C835.0000000000002 640 835.0000000000002 690 800.0000000000001 725L730.0000000000002 795C715.0000000000002 810 690.0000000000001 820 670.0000000000001 820S625.0000000000001 810 610.0000000000001 795L550 740C535 725 525 705 525 680C525 670 525 660 530 650L470.0000000000001 595C455 620 445 650 445 680C445 725 460 765 490 795L550 850C580.0000000000001 880 620.0000000000001 900 665 900S750 880 780 850L850.0000000000001 780C915 715 915 610 850.0000000000001 550z" />
    <glyph glyph-name="location"
      unicode="&#xF121;"
      horiz-adv-x="1000" d=" M820 625C820 485 745 375 669.9999999999999 280C629.9999999999999 230 529.9999999999999 95 529.9999999999999 95L499.9999999999999 54.9999999999999L469.9999999999999 95C469.9999999999999 95 369.9999999999999 225 329.9999999999999 280C254.9999999999999 380 179.9999999999999 485 179.9999999999999 625C179.9999999999999 800 324.9999999999999 945 499.9999999999999 945S819.9999999999999 800 819.9999999999999 625zM745 625C745 760 635 870 500 870S255 760 255 625C255 520 305 435 390 325C415.0000000000001 289.9999999999999 470.0000000000001 225 500 179.9999999999999C535 225 585 289.9999999999999 610 325C695 434.9999999999999 745 520 745 625zM600 655C600 600 554.9999999999999 555 500 555S400 600 400 655S445 755 500 755S600 710 600 655z" />
    <glyph glyph-name="lock"
      unicode="&#xF122;"
      horiz-adv-x="1000" d=" M850 475V195C850 139.9999999999999 804.9999999999999 95 750 95H250C195 95 150 140 150 195V475C150 530 190 570 245 575V650C245 790 360 910 505 910S765 795 765 650V580C810 575 850 530 850 475zM775 475C775 490 765 500 750 500H385V580H679.9999999999999V650C679.9999999999999 750 600 830 499.9999999999999 830S320 750 320 650V500H250C235 500 225 490 225 475V195C225 179.9999999999999 235 169.9999999999999 250 169.9999999999999H750C765 169.9999999999999 775 179.9999999999999 775 195V475zM570 350C570 325 559.9999999999999 304.9999999999999 539.9999999999999 290V230H459.9999999999999V290C439.9999999999999 305 430 325.0000000000001 430 350.0000000000001C430 390.0000000000001 459.9999999999999 420.0000000000001 499.9999999999999 420.0000000000001S570 390.0000000000001 570 350.0000000000001z" />
    <glyph glyph-name="mail"
      unicode="&#xF123;"
      horiz-adv-x="1000" d=" M900 810V730L585 490C565 475 539.9999999999999 470 510 470C485 470 455 475 435 490L100 745V810H900zM820 585L899.9999999999999 650V190H99.9999999999999V665L179.9999999999999 600V304.9999999999999L329.9999999999999 494.9999999999999L394.9999999999999 449.9999999999999L249.9999999999999 264.9999999999999H749.9999999999999L614.9999999999999 434.9999999999999L679.9999999999999 480L820 304.9999999999999V585zM780 735H240L485 555C500 545 525 545 540 555L780 735z" />
    <glyph glyph-name="map"
      unicode="&#xF124;"
      horiz-adv-x="1000" d=" M895 745C885 725 880 705 865 685L905 670V100.0000000000001L735 170.0000000000001V510.0000000000002C735 510.0000000000002 735 510.0000000000002 735 510.0000000000002L700 465.0000000000002L664.9999999999999 510.0000000000002C664.9999999999999 510.0000000000002 664.9999999999999 510.0000000000002 664.9999999999999 510.0000000000002V170.0000000000001L339.9999999999999 90.0000000000002V665.0000000000002L524.9999999999999 710.0000000000001C509.9999999999999 730.0000000000002 499.9999999999999 750.0000000000001 494.9999999999999 770.0000000000001L304.9999999999999 720.0000000000001L29.9999999999999 835.0000000000001V125.0000000000002L299.9999999999999 15.0000000000002L694.9999999999999 115.0000000000002L969.9999999999998 2e-13V710.0000000000002L894.9999999999999 745.0000000000002zM270 100L100 169.9999999999999V739.9999999999999L270 669.9999999999999V99.9999999999999z M700 1000C610 1000 534.9999999999999 925 534.9999999999999 835C534.9999999999999 760 575 700 614.9999999999999 645C639.9999999999999 610 699.9999999999999 535 699.9999999999999 535V535V535C699.9999999999999 535 759.9999999999998 610 784.9999999999998 640C829.9999999999999 695 864.9999999999998 755 864.9999999999998 830C864.9999999999998 925 789.9999999999998 1000 699.9999999999998 1000zM700 790C664.9999999999999 790 639.9999999999999 815 639.9999999999999 850S664.9999999999999 910 700 910C735 910 760 885 760 850C760 820 730 790 700 790z" />
    <glyph glyph-name="minus"
      unicode="&#xF125;"
      horiz-adv-x="1000" d=" M165 460V540H835.0000000000001V460H165z" />
    <glyph glyph-name="move"
      unicode="&#xF126;"
      horiz-adv-x="1000" d=" M695 360L794.9999999999999 460H539.9999999999999V205L639.9999999999999 304.9999999999999L695 249.9999999999999L499.9999999999999 54.9999999999999L305 250L360 305L459.9999999999999 205.0000000000001V460.0000000000001H205L305 360.0000000000001L250 305L54.9999999999999 500.0000000000001L250 695L305 640L205 540H459.9999999999999V795L360 695L305 750L500 945.0000000000002L695.0000000000001 750L640 695L540 795V540H795L695.0000000000001 640L750.0000000000001 695L945.0000000000002 500L750 304.9999999999999L695 360z" />
    <glyph glyph-name="navigate-down"
      unicode="&#xF127;"
      horiz-adv-x="1000" d=" M150 645L205 700L500 405L794.9999999999999 700L850 645L500 295L150 645z" />
    <glyph glyph-name="navigate-left"
      unicode="&#xF128;"
      horiz-adv-x="1000" d=" M295 500L645 850L700.0000000000001 795L405.0000000000001 500L700.0000000000001 205.0000000000001L650 150L295.0000000000001 500z" />
    <glyph glyph-name="navigate-right"
      unicode="&#xF129;"
      horiz-adv-x="1000" d=" M295 205L590 500L295 795L355 850L705 500L355 150L295 205.0000000000001z" />
    <glyph glyph-name="navigate-up"
      unicode="&#xF12A;"
      horiz-adv-x="1000" d=" M500 595L205 300L150 350.0000000000001L500 700L850 350.0000000000001L794.9999999999999 295L499.9999999999999 595z" />
    <glyph glyph-name="navigation-hamburger"
      unicode="&#xF12B;"
      horiz-adv-x="1000" d=" M0 275H1000V125H0V275z M0 575H1000V425H0V575z M0 875H1000V725H0V875z" />
    <glyph glyph-name="pause"
      unicode="&#xF12C;"
      horiz-adv-x="1000" d=" M809.3125 827.90625H595.375C586.0625 827.90625 581.40625 823.25 581.40625 813.9375V188.34375C581.40625 179.0312500000001 586.0625 174.3750000000001 595.375 174.3750000000001H809.3125C818.6249999999999 174.3750000000001 823.28125 179.0312500000001 823.28125 188.34375V811.59375C825.59375 823.21875 820.9687499999999 827.875 809.3125 827.875z M404.65625 827.90625H190.71875C181.40625 827.90625 176.75 823.25 176.75 813.9375V188.34375C176.75 179.0312500000001 181.40625 174.3750000000001 190.71875 174.3750000000001H404.65625C413.96875 174.3750000000001 418.625 179.0312500000001 418.625 188.34375V811.59375C420.9375 823.21875 413.96875 827.875 404.65625 827.875z" />
    <glyph glyph-name="phone"
      unicode="&#xF12D;"
      horiz-adv-x="1000" d=" M70 265C55 310 70 340 115 360C145 375 190 395 225 410C250 420 275 435 295.0000000000001 440.0000000000001C305.0000000000001 445.0000000000001 315.0000000000001 450.0000000000001 330.0000000000001 450.0000000000001C355.0000000000001 450.0000000000001 375.0000000000001 430 380.0000000000001 425L425.0000000000001 380C450.0000000000001 395 495.0000000000001 425 535 465S605 550 620 575L575 620C539.9999999999999 649.9999999999999 544.9999999999999 680 559.9999999999999 710C570 730 580 750 590 780C605 815 625 860 640 890C645 905 660 940 700 940C710 940 720 935 730 935C830 905 929.9999999999998 830 929.9999999999998 725C929.9999999999998 625 850 440 700 294.9999999999999C549.9999999999999 144.9999999999999 370 65 270 65V65C175 59.9999999999999 95 164.9999999999999 70 264.9999999999999zM145 285C165 215.0000000000001 220 140 275 140V140C345.0000000000001 140 510 205.0000000000001 655 345C795 485 860 650 860 725C860 780 785 835 715 855C715 855 715 855 715 855C700 825 679.9999999999999 780 664.9999999999999 745C654.9999999999999 720 639.9999999999999 695 634.9999999999999 680C634.9999999999999 680 634.9999999999999 680 634.9999999999999 675C634.9999999999999 675 634.9999999999999 675 634.9999999999999 675L719.9999999999999 590L709.9999999999999 565C709.9999999999999 560 669.9999999999998 485 594.9999999999999 409.9999999999999S444.9999999999999 299.9999999999999 439.9999999999999 294.9999999999999L414.9999999999999 284.9999999999999L329.9999999999998 369.9999999999999C329.9999999999998 369.9999999999999 329.9999999999998 369.9999999999999 329.9999999999998 369.9999999999999S329.9999999999998 369.9999999999999 324.9999999999998 369.9999999999999C309.9999999999998 359.9999999999999 284.9999999999999 349.9999999999999 259.9999999999998 339.9999999999999C214.9999999999998 319.9999999999999 174.9999999999998 299.9999999999998 144.9999999999998 284.9999999999998C144.9999999999998 284.9999999999998 144.9999999999998 284.9999999999998 144.9999999999998 284.9999999999998z" />
    <glyph glyph-name="play"
      unicode="&#xF12E;"
      horiz-adv-x="1000" d=" M85 80C80 85 75 90 75 95V905C75 910 80 915 85 920S95 925 105 920L919.9999999999998 515C924.9999999999998 510 929.9999999999998 505 929.9999999999998 500S924.9999999999998 485 919.9999999999998 485L100 75C95 75 95 75 90 75C90 75 85 75 85 80z" />
    <glyph glyph-name="plus"
      unicode="&#xF12F;"
      horiz-adv-x="1000" d=" M835 460H540V165H460V460H165V540H460V835H540V540H835V460z" />
    <glyph glyph-name="print"
      unicode="&#xF130;"
      horiz-adv-x="1000" d=" M985 595V284.9999999999999C985 229.9999999999999 940 184.9999999999999 885 184.9999999999999H845V264.9999999999999H885C900 264.9999999999999 910 274.9999999999999 910 289.9999999999999V595C910 610 900 620 885 620H115C100 620 90 610 90 595V284.9999999999999C90 269.9999999999999 100 259.9999999999999 115 259.9999999999999H155V179.9999999999999H115C60 179.9999999999999 15 225 15 279.9999999999999V595C15 649.9999999999999 60 695 115 695H215V930H775V695H875C940 695 985 650 985 595zM220 415H780V70.0000000000001H220V415zM295 695H700V850H295V695zM295 150H700V340.0000000000001H295V150.0000000000001zM845 475H765V555H845V475z" />
    <glyph glyph-name="right-arrow"
      unicode="&#xF131;"
      horiz-adv-x="1000" d=" M905 500L495.0000000000001 90.0000000000001L440.0000000000001 145.0000000000001L755.0000000000001 460.0000000000002H95.0000000000001V540.0000000000002H755.0000000000001L440.0000000000001 855.0000000000002L495.0000000000001 910.0000000000002L905 500.0000000000002z" />
    <glyph glyph-name="search"
      unicode="&#xF132;"
      horiz-adv-x="1000" d=" M835 110L630 315C575 269.9999999999999 505 250 435 250C350 250 270 285 210 345S115 485 115 570S150 735 210 795C270 855 350 890 435 890S600 855 660 795C715.0000000000001 735 750 655 750 570C750 500 725 429.9999999999999 679.9999999999999 375L884.9999999999999 170L834.9999999999999 110.0000000000001zM430 330C495 330 554.9999999999999 355 600 399.9999999999999S669.9999999999999 504.9999999999999 669.9999999999999 570S644.9999999999999 695 599.9999999999999 740C554.9999999999998 785 494.9999999999999 810 429.9999999999999 810S304.9999999999999 785 259.9999999999998 740C214.9999999999998 695 189.9999999999998 635 189.9999999999998 570S214.9999999999998 445 259.9999999999998 399.9999999999999C304.9999999999998 354.9999999999999 364.9999999999998 329.9999999999999 429.9999999999999 329.9999999999999z" />
    <glyph glyph-name="share"
      unicode="&#xF133;"
      horiz-adv-x="1000" d=" M725 200H200V725H390V800H125V125H800V390H725.0000000000001z M520 875V800H745L500 555L555 500L800 745V520H875V875z" />
    <glyph glyph-name="trash"
      unicode="&#xF134;"
      horiz-adv-x="1000" d=" M845 775V695H155V775H315.0000000000001L360.0000000000001 915H630.0000000000001L675.0000000000001 775H845.0000000000002zM720 635H799.9999999999999V90H205V635H285V165H725V635zM455 635V245H375V635H455zM600 775L580 835H420L399.9999999999999 775H599.9999999999999zM625 635V245H545V635H625z" />
    <glyph glyph-name="trims-audio"
      unicode="&#xF135;"
      horiz-adv-x="1000" d=" M772.09375 0H227.90625C102.3125 0 0 102.3125 0 227.90625V772.09375C0 897.6875 102.3125 1000 227.90625 1000H772.09375C897.6875 1000 1000 897.6875 1000 772.09375V227.90625C1000 102.3125 897.6875 0 772.09375 0zM227.90625 953.5C127.90625 953.5 46.5 872.09375 46.5 772.09375V227.90625C46.5 127.90625 127.90625 46.5 227.90625 46.5H772.09375C872.09375 46.5 953.5 127.90625 953.5 227.90625V772.09375C953.5 872.09375 872.09375 953.5 772.09375 953.5H227.90625z M500 137.21875C486.03125 137.21875 476.75 146.5312499999999 476.75 160.4687499999999V839.53125C476.75 853.5 486.0625 862.78125 500 862.78125S523.25 853.46875 523.25 839.53125V160.4687499999999C523.25 146.5 513.9375 137.21875 500 137.21875z M395.34375 153.5C381.375 153.5 372.09375 162.8124999999999 372.09375 176.75V823.2499999999999C372.09375 837.2187499999999 381.40625 846.4999999999999 395.34375 846.4999999999999S418.59375 837.1874999999999 418.59375 823.2499999999999V176.75C418.59375 165.125 409.28125 153.5 395.34375 153.5z M188.375 341.875C174.40625 341.875 165.125 351.1875 165.125 365.125V634.90625C165.125 648.875 174.4375 658.15625 188.375 658.15625S211.625 648.84375 211.625 634.90625V365.125C211.625 353.5 202.3125 341.875 188.375 341.875z M811.625 341.875C797.6562500000001 341.875 788.375 351.1875 788.375 365.125V634.90625C788.375 648.875 797.6875 658.15625 811.625 658.15625S834.875 648.84375 834.875 634.90625V365.125C834.875 353.5 823.25 341.875 811.625 341.875z M706.96875 209.3125C693.0000000000001 209.3125 683.71875 218.625 683.71875 232.5625V769.78125C683.71875 783.75 693.03125 793.03125 706.96875 793.03125S730.21875 783.71875 730.21875 769.78125V232.5625C730.21875 218.59375 720.9062500000001 209.3125 706.96875 209.3125z M293.03125 209.3125C279.0625000000001 209.3125 269.78125 218.625 269.78125 232.5625V769.78125C269.78125 783.75 279.0937500000001 793.03125 293.03125 793.03125S316.28125 783.71875 316.28125 769.78125V232.5625C316.28125 218.59375 304.65625 209.3125 293.03125 209.3125z M604.65625 153.5C590.6875 153.5 581.40625 162.8124999999999 581.40625 176.75V823.2499999999999C581.40625 837.2187499999999 590.71875 846.4999999999999 604.65625 846.4999999999999S627.90625 837.1874999999999 627.90625 823.2499999999999V176.75C627.90625 165.125 616.28125 153.5 604.65625 153.5z" />
    <glyph glyph-name="trims-camera"
      unicode="&#xF136;"
      horiz-adv-x="1000" d=" M360.46875 393.03125C337.21875 423.25 323.25 460.4687500000001 323.25 500.0000000000001C323.25 565.125 360.46875 623.25 413.9375 653.5C406.96875 665.125 399.96875 676.75 393 688.375C327.875 651.15625 283.6875 581.40625 283.6875 500.0000000000001C283.6875 453.5000000000001 299.96875 409.3125000000001 325.5625 372.0937500000001C337.1875 379.0625000000001 348.8125 386.0625000000001 360.4375 393.0312500000001z M500 0C223.25 0 0 223.25 0 500S223.25 1000 500 1000S1000 776.75 1000 500S776.75 0 500 0zM500 953.5C251.15625 953.5 46.5 748.84375 46.5 500S251.15625 46.5 500 46.5S953.5 251.15625 953.5 500S748.84375 953.5 500 953.5z M500 132.5625C297.6875 132.5625 132.5625 297.6875 132.5625 500S297.6875 867.4375 500 867.4375S867.4375 702.3125 867.4375 500S702.3125 132.5625 500 132.5625zM500 820.9375C323.2500000000001 820.9375 179.0625 676.75 179.0625 500S323.2500000000001 179.0625 500 179.0625S820.9375 323.25 820.9375 500S676.75 820.9375 500 820.9375z" />
    <glyph glyph-name="trims-heated-seats"
      unicode="&#xF137;"
      horiz-adv-x="1000" d=" M986.03125 979.0625C974.40625 990.6875 960.4375 1000 944.15625 1000C862.75 1004.65625 795.3125000000001 946.5 783.6875000000001 860.46875C779.0312500000001 820.9375 786.0000000000001 788.375 809.2812500000001 760.46875C818.59375 748.84375 827.875 739.53125 839.5 732.5625C790.6562500000001 723.25 748.8125 700 725.5625 648.84375L579.0625 332.5625C562.78125 295.34375 562.78125 267.4375 567.4375 241.875L300.0000000000001 265.125C151.1562500000001 279.0937499999999 55.8125 255.8125 18.59375 193.03125C-9.3125 146.53125 -4.65625 86.0624999999999 34.875 11.625C39.53125 4.65625 48.8125 0 55.8125 0H767.4375C776.7499999999999 0 786.03125 6.96875 790.6875 16.28125L983.71875 706.96875C983.71875 709.28125 986.03125 711.625 986.03125 713.9375L999.9687500000002 934.8750000000002C999.9687500000002 951.1562500000002 995.3125 965.0937500000002 986.0000000000002 979.0625000000002zM748.84375 46.5H72.0937500000001C53.5000000000001 86.03125 39.5312500000001 134.875 60.4687500000001 169.75C86.0625000000001 213.9375 169.7812500000001 232.53125 297.6875000000001 220.90625L602.3437500000002 193C611.6562500000001 193 618.6250000000002 195.3125 623.2812500000002 202.3124999999999S627.9375000000002 218.5937499999999 625.5937500000002 225.5624999999999C616.2812500000003 246.4999999999999 604.6562500000002 269.7499999999999 623.2812500000002 313.9374999999999L767.4687500000002 630.2187499999999C790.7187500000002 686.0312499999999 844.2187500000002 692.9999999999999 930.2500000000002 692.9999999999999L748.8437500000002 46.5zM939.53125 744.1875C911.625 748.84375 867.4375000000001 760.46875 841.84375 790.6875C827.875 806.96875 823.25 827.90625 825.5625 853.46875C834.8749999999999 911.59375 879.0625 953.46875 932.53125 953.46875C934.8437500000002 953.46875 937.1875000000002 953.46875 939.5 953.46875C944.15625 953.46875 946.46875 951.15625 948.8125 948.8125C953.46875 944.15625 953.46875 941.84375 953.46875 937.1875L939.5 744.15625z M137.21875 841.875L148.84375 853.5C146.53125 827.90625 139.53125 809.3125 132.5625 788.375C120.9375 758.15625 109.3125 725.59375 109.3125 665.125C109.3125 600 120.9375 567.4375 132.5625 534.90625C141.875 504.6874999999999 153.5 476.7812499999999 153.5 420.96875C153.5 402.375 153.5 386.09375 151.1875 372.125C148.875 360.5 158.15625 346.5312500000001 172.125 346.5312500000001H174.4375C186.0625 346.5312500000001 195.375 355.84375 197.6875 367.4687500000001C200 383.7500000000001 200 402.3437500000001 200 423.2812500000001C200 488.4062500000002 188.375 520.9687500000002 176.75 553.5000000000002C165.125 581.4062500000002 155.8125 609.3125000000002 155.8125 665.1250000000002C155.8125 716.2812500000002 165.125 744.1875000000002 176.75 772.0937500000002C186.0625 795.3437500000002 193.03125 818.5937500000002 195.34375 851.1562500000002L204.65625 841.8437500000002C209.3125 837.1875000000002 213.96875 834.8750000000002 218.625 834.8750000000002S230.25 837.1875000000002 234.90625 841.8437500000002C244.21875 851.1562500000002 244.21875 865.0937500000002 234.90625 874.4062500000001L186.0625 925.5625000000002C183.75 930.2187500000002 176.75 932.5312500000002 169.78125 932.5312500000002V932.5312500000002C165.125 932.5312500000002 158.15625 930.2187500000002 153.5 925.5625000000002L104.65625 874.4062500000001C95.34375 867.4375000000002 95.34375 851.1562500000002 104.65625 841.8437500000002S127.90625 832.5312500000002 137.21875 841.8437500000002z M313.9375 841.875L325.5625 853.5C323.25 827.90625 316.25 809.3125 309.28125 788.375C297.65625 758.15625 286.03125 725.59375 286.03125 665.125C286.03125 600 297.65625 567.4375 309.28125 534.90625C318.59375 504.6874999999999 330.21875 476.7812499999999 330.21875 420.96875C330.21875 400.03125 327.90625 383.75 325.5625 367.46875C323.25 355.84375 332.53125 341.875 344.15625 341.875C346.46875 341.875 346.46875 341.875 348.8125 341.875C360.4375 341.875 369.75 351.1875 372.0625 362.8125000000001C374.375 381.4062500000001 376.71875 400.0312500000001 376.71875 423.28125C376.71875 488.4062500000001 365.09375 520.96875 353.46875 553.5C344.15625 583.71875 332.53125 611.625 332.53125 667.4375C332.53125 718.59375 341.84375 746.5 353.46875 774.40625C362.78125 797.65625 369.75 820.90625 372.0625 853.46875L381.375 844.15625C386.03125 839.5 393 837.1875 397.65625 837.1875C404.625 837.1875 409.28125 839.5 413.9375 844.15625C423.25 853.46875 423.25 867.40625 413.9375 876.71875L362.78125 927.875C360.46875 930.1875 353.46875 932.53125 348.8125 932.53125V932.53125C341.84375 932.53125 337.1875000000001 930.21875 332.53125 925.5625L283.6875 874.40625C274.375 865.09375 274.375 851.15625 283.6875 841.84375C290.65625 832.53125 304.625 832.53125 313.90625 841.84375z M493.03125 841.875L504.65625 853.5C502.34375 827.90625 495.34375 809.3125 488.375 788.375C476.75 758.15625 465.125 725.59375 465.125 665.125C465.125 600 476.75 567.4375 488.375 534.90625C495.34375 513.96875 502.3125000000001 495.375 504.65625 467.46875C506.9687500000001 455.84375 516.28125 446.5312499999999 527.90625 446.5312499999999H530.2187500000001C541.8437500000001 448.84375 551.1562500000001 460.4999999999999 551.1562500000001 472.1249999999999C546.5000000000001 504.6874999999999 539.5312500000001 527.9374999999999 532.5625000000001 548.8749999999999C520.9375000000001 581.4374999999999 511.6250000000001 609.3437499999999 511.6250000000001 665.1562499999999C511.6250000000001 716.3124999999999 520.9375 744.2187499999999 532.5625000000001 772.1249999999999C541.8750000000001 795.3749999999999 548.8437500000002 818.6249999999999 551.1562500000001 851.1874999999999L560.4687500000001 841.8749999999999C565.1250000000001 837.2187499999999 572.0937500000001 834.9062499999999 576.7500000000001 834.9062499999999S588.3750000000001 837.2187499999999 593.0312500000001 841.8749999999999C602.3437500000001 851.1874999999999 602.3437500000001 865.1249999999999 593.0312500000001 874.4374999999999L541.8750000000001 925.5937499999998C537.2187500000001 930.2499999999998 532.5625000000001 932.5624999999998 525.5937500000001 932.5624999999998V932.5624999999998C520.9375 932.5624999999998 516.2812500000001 930.2499999999998 511.6250000000001 927.9062499999998V927.9062499999998L509.3125000000001 925.5937499999998L460.4687500000001 874.4374999999999C451.1562500000001 865.1249999999999 451.1562500000001 851.1874999999999 460.4687500000001 841.8749999999999S483.7187500000001 832.5624999999999 493.0312500000001 841.8749999999999z" />
    <glyph glyph-name="trims-iEloop"
      unicode="&#xF138;"
      horiz-adv-x="1000" d=" M1000 458.125C1000 558.125 967.4375 653.46875 909.3125 732.53125L960.46875 727.875C974.4375 725.5625 983.71875 737.1875 986.0625 748.8125C986.0625 762.78125 976.75 772.0625 965.1249999999998 774.40625L855.8124999999999 783.71875C848.8437499999999 783.71875 844.1874999999999 781.40625 839.5312499999999 779.0625C834.8749999999998 774.40625 832.5624999999999 769.75 830.2187499999999 762.78125L820.90625 651.15625C820.90625 637.1875 830.2187499999999 627.90625 841.84375 625.5625H844.15625C855.78125 625.5625 867.40625 634.875 867.40625 646.5L872.0625000000001 700C925.5625000000002 630.21875 953.4687500000002 544.1875 953.4687500000002 453.5C953.4687500000002 230.2500000000001 769.7500000000001 46.53125 541.8437500000001 46.53125C353.4687500000001 46.53125 190.6875000000001 174.4375 144.15625 355.84375C186.03125 372.125 216.2500000000001 411.65625 216.2500000000001 458.15625C216.2500000000001 637.21875 362.75 783.75 541.8437500000001 783.75H551.15625C609.28125 783.75 658.1250000000001 830.25 660.46875 890.71875S613.9687500000001 1000.0312500000002 553.5000000000001 1002.3437500000002H541.8750000000001C244.1875000000001 995.3750000000002 1e-13 751.1875 1e-13 458.15625C1e-13 402.34375 44.1875000000001 355.84375 97.6875000000001 351.1875C146.5312500000001 146.53125 330.2500000000001 0.0312499999999 541.8750000000001 0.0312499999999C795.3750000000001 0.0312499999999 1000 204.6874999999999 1000 458.1562499999999zM55.8125 553.5L167.4375 441.875C162.78125 416.28125 137.21875 395.375 109.3125 395.375C74.4375 395.375 46.53125 423.28125 46.53125 458.15625C46.53125 490.7187500000001 51.1875 520.9375 55.84375 553.5zM458.125 941.875C486.03125 946.53125 513.9375 948.84375 541.84375 948.84375H553.46875C588.34375 948.84375 613.9374999999999 920.9375 613.9374999999999 886.0625C613.9374999999999 860.46875 595.34375 837.21875 569.7499999999999 830.25L458.1249999999999 941.875zM509.3124999999999 823.25C476.7499999999999 820.9375 446.53125 813.9375 416.28125 802.3125L323.25 895.34375C348.8437499999999 909.28125 376.75 918.59375 404.65625 927.90625L509.3124999999999 823.25zM369.78125 783.71875C344.1875 769.75 323.28125 755.8125 302.34375 737.21875L213.96875 823.25C234.9062500000001 841.84375 255.8437500000001 858.125 279.0937500000001 872.09375L369.7812500000001 783.71875zM267.4375 704.65625C248.84375 683.71875 232.5625 662.78125 218.59375 639.53125L130.21875 727.90625C146.5 751.15625 162.78125 772.09375 181.375 790.6875L267.40625 704.625zM197.6875 593.03125C186.0625 565.125 179.09375 534.90625 174.4375 502.34375L72.125 604.65625C81.4375 632.5625 93.0625 660.46875 107 686.0625L197.6875 593.03125z M541.875 690.6875C411.65625 690.6875 304.65625 583.71875 304.65625 453.46875S411.625 216.2499999999999 541.875 216.2499999999999S779.09375 325.5625 779.09375 458.1249999999999S674.4375 690.6874999999999 541.875 690.6874999999999zM541.875 267.4375C437.21875 267.4375 351.1875 353.46875 351.1875 458.125S437.21875 648.8125 541.875 648.8125S732.5625 562.78125 732.5625 458.125S646.53125 267.4375 541.875 267.4375z M581.40625 548.84375C581.40625 525.71875 562.65625 506.96875 539.53125 506.96875S497.65625 525.71875 497.65625 548.84375C497.65625 571.96875 516.4062500000001 590.71875 539.53125 590.71875S581.40625 571.96875 581.40625 548.84375z M406.96875 493.0312500000001C404.65625 481.40625 404.65625 472.09375 409.28125 460.46875S423.25 444.1875 432.53125 439.5312499999999C437.1875 437.2187499999999 441.84375 437.2187499999999 444.15625 437.2187499999999C462.75 437.2187499999999 479.0312499999999 448.8437499999999 483.6875 465.1249999999999C490.65625 486.0625 479.03125 509.3124999999999 458.0937499999999 516.2812499999999S413.90625 509.3124999999999 406.9375 493.0312499999999z M511.625 402.3125C493.03125 416.2812499999999 467.4375 411.6249999999999 453.5 393C446.53125 383.6875000000001 444.1875 372.0625 446.53125 362.78125C448.84375 351.1562500000001 453.5 341.84375 462.8125 334.875C469.7812500000001 330.21875 479.0937500000001 327.9062500000001 486.0625 327.9062500000001C500.0312500000001 327.9062500000001 511.6562500000001 334.875 518.625 344.1875000000001S527.9375 365.1250000000001 525.59375 374.40625C525.59375 386.03125 520.9374999999999 395.3437500000001 511.625 402.3125000000001z M639.53125 397.6875C625.5625 416.2812499999999 600 420.9375 581.40625 406.9999999999999S558.15625 367.4687499999999 572.0937500000001 348.8749999999999C579.0625 337.2499999999999 593.0312500000001 332.5937499999999 604.6562500000001 332.5937499999999C613.9687500000001 332.5937499999999 620.9375000000001 334.90625 627.9062500000001 339.5624999999999C637.21875 346.5312499999999 641.8750000000001 355.8437499999999 644.1875000000001 367.4687499999999C648.8437500000001 376.7812499999999 646.5000000000002 388.40625 639.5312500000001 397.6874999999999z M600 474.40625C604.65625 458.125 620.9375 446.5 639.53125 446.5C644.1875 446.5 648.8437499999999 446.5 653.5 448.8125000000001C674.4375 455.78125 686.0625 479.03125 679.0937499999999 499.9687500000001S648.875 532.53125 627.9374999999999 525.5625C604.6874999999999 513.9375 593.0624999999999 495.3437500000001 600.0312499999999 474.40625z" />
    <glyph glyph-name="trims-skyactiv"
      unicode="&#xF139;"
      horiz-adv-x="1000" d=" M511.625 837.21875C525.59375 837.21875 534.875 848.84375 534.875 860.46875V976.75C534.875 990.71875 525.5625 1000 511.625 1000S488.375 988.375 488.375 976.75V860.46875C488.375 846.5 500 837.21875 511.625 837.21875z M355.8125 823.25C358.125 813.9375 367.4375 809.28125 376.75 809.28125C379.0625 809.28125 383.71875 809.28125 386.0625 811.59375C397.6875 816.25 404.65625 830.1875 397.6875 841.8125L353.5 948.78125C348.84375 960.40625 334.90625 967.375 323.28125 960.40625C311.65625 955.75 307 944.125 311.65625 930.1875L355.84375 823.21875z M244.1875 737.21875C248.84375 732.5625 255.8125 730.25 260.46875 730.25S272.09375 732.5625 276.7500000000001 737.21875C286.0625000000001 746.53125 286.0625000000001 760.46875 276.7500000000001 769.78125L197.6875000000001 853.5C188.3750000000001 862.8125 174.4375000000001 862.8125 165.1250000000001 853.5S155.8125000000001 830.25 165.1250000000001 820.9375L244.1875000000001 737.21875z M69.78125 660.46875L174.4375 616.28125C176.75 613.96875 181.40625 613.96875 183.75 613.96875C193.0625 613.96875 202.34375 618.625 204.6875 627.9375C209.34375 639.5625 204.6875 653.53125 193.0625 658.15625L88.40625 702.34375C76.78125 707 62.8125 702.34375 58.1875 690.71875S58.1875 665.125 69.8125 660.5z M44.1875 476.75H158.15625C172.125 476.75 181.40625 488.375 181.40625 500C181.40625 513.96875 172.09375 523.25 158.15625 523.25H44.1875C30.21875 523.25 20.9375 511.625 20.9375 500C20.9375 486.0625 30.25 476.75 44.1875 476.75z M639.53125 811.625C641.84375 809.3125 646.5 809.3125 648.8437499999999 809.3125C658.1562499999999 809.3125 667.4374999999999 813.96875 669.78125 823.28125L709.3125 930.25C713.96875 941.875 709.3125 955.84375 697.6875 960.46875S672.09375 960.46875 667.46875 948.84375L623.28125 841.875C620.96875 830.25 627.9375 816.28125 639.5625 811.65625z M758.125 732.5625C765.09375 732.5625 769.75 734.875 774.4062500000001 739.53125L855.8125000000001 820.9375C865.125 830.25 865.125 844.1875 855.8125000000001 853.5S832.5625000000001 862.8125 823.25 853.5L741.84375 772.09375C732.5312500000001 762.78125 732.5312500000001 748.84375 741.84375 739.53125C746.5 734.875 753.46875 732.5625 758.125 732.5625z M813.96875 627.90625C818.625 618.59375 825.59375 613.9375 834.9062500000001 613.9375C837.2187500000001 613.9375 841.875 613.9375 844.21875 616.25L948.875 660.4375C960.5 665.09375 967.46875 679.03125 960.5 690.65625C955.84375 702.28125 941.90625 709.25 930.2812500000002 702.28125L825.625 658.09375C814 655.78125 809.34375 641.8125 814 627.875z M976.75 523.25H862.8125C848.84375 523.25 839.5625 511.625 839.5625 500C839.5625 486.03125 848.8749999999999 476.75 862.8125 476.75H976.75C990.71875 476.75 1000 488.375 1000 500C1000 513.96875 990.6875 523.25 976.75 523.25z M941.875 351.15625C918.625 348.8437499999999 895.375 346.4999999999999 874.4375 346.4999999999999C804.65625 346.4999999999999 746.53125 360.4687499999999 690.71875 372.0937499999999S576.78125 397.6874999999999 509.3125000000001 397.6874999999999C493.0312500000001 397.6874999999999 474.4375000000001 397.6874999999999 455.8125000000001 395.3749999999998C383.7187500000001 388.4062499999999 325.5937500000001 369.7812499999999 274.4062500000001 355.8437499999998C225.5625000000001 339.5624999999998 181.3750000000001 327.9374999999998 134.8750000000001 327.9374999999998C100.0000000000001 327.9374999999998 65.0937500000001 334.9062499999998 27.9062500000001 348.8749999999998C18.5937500000001 353.5312499999999 6.9687500000001 348.8749999999998 1e-13 339.5624999999999C-4.6562499999999 332.5937499999999 -4.6562499999999 323.2812499999999 1e-13 313.9687499999999V313.9687499999999C1e-13 313.9687499999999 1e-13 313.9687499999999 2.3125000000001 311.6562499999999L4.6250000000001 309.3437499999998C23.2187500000001 293.0624999999998 39.5000000000001 274.4687499999998 55.7812500000001 255.8437499999998C174.3750000000001 123.2812499999998 286.0000000000001 0.0312499999998 502.2812500000001 0.0312499999998C734.8437500000001 0.0312499999998 904.5937500000002 160.4999999999999 958.0937500000002 320.9687499999998C960.4062500000002 327.9374999999998 958.0937500000002 337.2499999999998 953.4375000000002 344.2187499999998C958.0937500000002 348.8749999999998 951.1250000000002 351.1874999999998 941.8125000000002 351.1874999999998zM511.625 46.5C341.84375 46.5 241.8437500000001 127.90625 151.15625 230.2187499999999C225.5625 195.3437499999999 330.21875 162.7812499999999 448.84375 162.7812499999999C469.78125 162.7812499999999 493.03125 162.7812499999999 516.28125 165.0937499999999C530.25 167.40625 539.53125 179.0624999999999 537.2187500000001 190.6874999999999C534.90625 204.6562499999999 525.5937500000001 213.9374999999999 511.6250000000001 211.625C365.1250000000002 197.65625 239.5312500000001 237.2187499999999 160.4687500000001 276.7499999999999C209.3125000000001 279.0625 253.5000000000001 293.03125 302.3437500000001 306.9687499999999S404.6562500000002 339.53125 474.4375000000001 344.1874999999999C490.7187500000002 346.4999999999999 507.0000000000001 346.4999999999999 523.2812500000001 346.4999999999999C586.0625000000001 346.4999999999999 637.2187500000001 334.8749999999999 693.0625000000001 320.90625C751.1875000000001 306.9375 811.6562500000002 292.9999999999999 886.0937500000001 292.9999999999999C897.7187500000001 292.9999999999999 909.3437500000002 292.9999999999999 920.9687500000002 292.9999999999999C848.8750000000001 169.75 700.0312500000001 46.5 511.6562500000002 46.5z M511.625 446.5C539.53125 446.5 565.125 469.75 565.125 500C565.125 509.3125 562.8124999999999 518.59375 558.15625 525.59375L667.46875 690.71875C674.4375 702.34375 672.1250000000001 716.3124999999999 660.5000000000001 723.28125S634.9062500000001 727.9374999999999 627.9375 716.3124999999999L518.625 551.1875C516.3125 551.1875 513.96875 551.1875 511.6562500000001 551.1875C483.75 551.1875 458.1562500000001 527.9375 458.1562500000001 497.6874999999999C460.4687500000001 469.7812499999999 483.75 446.5312499999999 511.6562500000001 446.5312499999999z" />
    <glyph glyph-name="trims-wheels"
      unicode="&#xF13A;"
      horiz-adv-x="1000" d=" M897.6875 560.46875C897.6875 562.78125 897.6875 562.78125 897.6875 560.46875C897.6875 565.125 897.6875 567.4375 897.6875 572.09375C897.6875 574.40625 897.6875 576.75 895.3749999999999 579.0625C895.3749999999999 581.375 893.0624999999999 583.71875 893.0624999999999 588.375C890.7499999999998 600 888.4062499999999 609.3125 886.0937499999999 618.59375C886.0937499999999 620.90625 886.0937499999999 620.90625 883.7812499999999 623.25C874.4687499999999 653.46875 860.5312499999999 683.71875 844.2499999999999 713.9375C844.2499999999999 716.25 841.9374999999998 716.25 839.5937499999998 718.59375C783.7812499999998 806.96875 693.0937499999999 872.09375 586.0937499999999 895.34375C583.7812499999998 895.34375 583.7812499999998 897.65625 581.4374999999998 897.65625C527.9374999999999 909.28125 472.1249999999998 909.28125 418.6562499999999 897.65625C416.3437499999999 897.65625 416.3437499999999 895.34375 413.9999999999999 895.34375C307.0312499999999 872.09375 216.3124999999999 806.96875 160.4999999999999 718.59375C158.1874999999999 716.28125 158.1874999999999 716.28125 155.8437499999999 713.9375C151.1874999999999 706.96875 148.8749999999999 702.3125 146.5312499999999 695.34375V693.03125C141.8749999999999 683.71875 134.9062499999999 672.09375 132.5624999999999 662.8125C132.5624999999999 660.5 130.2499999999999 658.15625 130.2499999999999 658.15625C125.5937499999999 648.84375 123.2812499999999 639.5625 120.9374999999999 630.25C116.2812499999999 620.9375 116.2812499999999 618.625 113.9687499999999 613.96875C111.6562499999999 607 109.3124999999999 597.6875 106.9999999999999 588.375C104.6874999999999 583.71875 104.6874999999999 576.75 104.6874999999999 572.09375C104.6874999999999 569.78125 102.3749999999999 567.4375 102.3749999999999 565.125S102.3749999999999 562.8125 102.3749999999999 560.46875C100.0624999999999 539.53125 97.7187499999999 518.59375 97.7187499999999 497.6874999999999C97.7187499999999 276.7499999999999 279.1249999999999 95.375 500.0312499999999 95.375C620.96875 95.375 727.9374999999999 148.875 802.3437499999999 232.5937499999999V232.5937499999999C806.9999999999999 239.5624999999999 811.6562499999999 244.2187499999999 816.3124999999999 251.1874999999999C816.3124999999999 251.1874999999999 816.3124999999999 253.5 818.6249999999999 253.5V253.5C869.78125 320.9375 900.03125 404.6562499999999 900.03125 497.6874999999999C902.34375 520.9375 900.03125 541.875 897.7187499999999 560.46875zM760.46875 258.125C734.875 230.21875 704.65625 206.96875 674.4375 188.34375C669.78125 281.375 593.03125 355.78125 500.0312500000001 355.78125S330.2500000000001 281.375 325.6250000000001 188.34375C293.0625000000001 206.9375 265.1562500000001 230.21875 239.5937500000001 255.7812500000001C302.3750000000001 283.6875000000001 344.2500000000001 346.4687500000001 344.2500000000001 416.25C344.2500000000001 511.59375 265.1875000000001 590.65625 169.8437500000001 590.65625C165.1875000000001 590.65625 162.8750000000001 590.65625 158.2187500000001 590.65625C158.2187500000001 592.96875 160.53125 597.625 160.53125 599.96875C160.53125 604.625 162.84375 606.9375 165.1875000000001 611.59375C167.5 620.90625 169.8437500000001 627.875 174.5000000000001 634.84375C174.5000000000001 637.15625 176.8125 637.15625 176.8125 639.5C179.125 646.46875 183.78125 653.46875 186.125 658.09375C216.34375 632.5 255.9062500000001 618.5625 295.4375 618.5625C390.78125 618.5625 469.84375 697.625 469.84375 792.96875C469.84375 811.5625 467.53125 830.1875 460.53125 848.78125C474.5 851.09375 488.4375 851.09375 502.4062500000001 851.09375S530.3125000000001 851.09375 544.28125 848.78125C537.3125000000001 830.1875 534.9687500000001 811.5625 534.9687500000001 792.96875C534.9687500000001 697.625 614.0312500000001 618.5625 709.3750000000001 618.5625C748.9062500000001 618.5625 788.4375000000001 632.53125 818.6875000000001 658.09375C823.3437500000001 651.125 825.6562500000001 644.125 830.3125000000001 637.15625C830.3125000000001 637.15625 830.3125000000001 637.15625 830.3125000000001 634.84375C834.9687500000001 625.53125 837.2812500000001 616.25 839.6250000000001 606.9375C839.6250000000001 604.625 841.9375000000001 602.28125 841.9375000000001 599.96875S844.2500000000001 593 844.2500000000001 588.34375C841.9375000000001 588.34375 837.2812500000002 588.34375 834.9375000000002 588.34375C739.5937500000002 588.34375 660.5312500000002 509.28125 660.5312500000002 413.9375C660.5312500000002 348.8125 700.0625000000002 286.03125 760.5312500000002 258.1249999999999V258.1249999999999zM793.03125 702.3125C769.78125 681.375 739.53125 669.75 707 669.75C637.21875 669.75 579.09375 727.875 579.09375 797.65625C579.09375 813.9375 581.40625 830.21875 588.4062499999999 844.15625C672.1249999999999 823.21875 744.2187499999999 772.0625 793.0624999999999 702.28125zM411.625 844.1875C418.5937500000001 830.21875 420.9375 813.96875 420.9375 797.6875C420.9375 727.90625 362.8125000000001 669.78125 293.03125 669.78125C260.46875 669.78125 230.25 681.40625 207 702.34375C255.8437500000001 772.125 327.9375 823.28125 411.6562500000001 844.21875zM146.5 544.1875C153.46875 546.5 160.46875 546.5 167.4375 546.5C237.21875 546.5 295.34375 488.375 295.34375 418.59375C295.34375 362.78125 258.125 313.9375 206.96875 297.65625C167.4375000000001 355.7812499999999 141.8437500000001 425.5625 141.8437500000001 499.9687499999999C144.15625 513.9375 144.15625 530.1875 146.5000000000001 544.15625zM374.40625 167.4375C374.40625 172.09375 372.09375 176.75 372.09375 183.71875C372.09375 253.5000000000001 430.21875 311.625 500 311.625S627.90625 253.5000000000001 627.90625 183.71875C627.90625 179.0625 627.90625 174.4062500000001 627.90625 169.7500000000001C588.375 153.46875 546.5 146.5000000000001 500 146.5000000000001C455.8125 144.1875 413.96875 153.46875 374.40625 167.4375000000001zM793.03125 297.6875C741.875 316.28125 707 362.8125 707 418.625C707 488.4062500000001 765.125 546.53125 834.90625 546.53125C841.8749999999999 546.53125 846.53125 546.53125 853.4999999999999 544.21875C855.8125 530.25 855.8125 514 855.8125 500.0312500000001C855.8125 425.625 832.5625 355.84375 793.03125 297.71875z M500 639.53125C434.875 639.53125 381.40625 586.03125 381.40625 520.9375S434.90625 402.34375 500 402.34375S618.59375 455.84375 618.59375 520.9375S565.0937500000001 639.53125 500 639.53125zM500 446.5C460.46875 446.5 427.90625 479.0625000000001 427.90625 518.59375S460.46875 590.6875 500 590.6875S572.09375 558.125 572.09375 518.59375S539.5312499999999 446.5 499.9999999999999 446.5z M500 1000C223.25 1000 0 776.75 0 500S223.25 0 500 0S1000 223.25 1000 500S776.75 1000 500 1000zM500 46.5C248.84375 46.5 46.5 248.8125 46.5 500S248.8125 953.5 500 953.5S953.5 751.1875 953.5 500S751.1875 46.5 500 46.5z" />
    <glyph glyph-name="tumblr"
      unicode="&#xF13B;"
      horiz-adv-x="643.75" d=" M418.75 0C231.25 0 150 81.25 150 250V562.5H0V706.25C125 750 206.25 812.5 231.25 1000H375V750H606.25V562.5H375V312.5C375 206.25 393.75 168.75 500 168.75C562.5 168.75 643.75 212.4999999999999 643.75 212.4999999999999V56.2499999999999C643.75 56.25 562.5 0 418.75 0z" />
    <glyph glyph-name="unlink"
      unicode="&#xF13C;"
      horiz-adv-x="1000" d=" M470 345L525 405C540 380 550 350 550 320.0000000000001C550 275 535 235.0000000000001 505 205.0000000000001L450 150C420.0000000000001 120 380 100 335 100S250 115 220 145L150 220C85 284.9999999999999 85 385 150 450L205 504.9999999999999C235.0000000000001 535 275 550 320 550C350 550 380 545 405 524.9999999999999L345.0000000000001 464.9999999999999C335 469.9999999999999 325 469.9999999999999 315.0000000000001 469.9999999999999C295.0000000000001 469.9999999999999 270.0000000000001 459.9999999999999 255.0000000000001 444.9999999999999L200.0000000000001 389.9999999999998C165.0000000000001 354.9999999999998 165.0000000000001 304.9999999999998 200.0000000000001 269.9999999999998L270.0000000000001 199.9999999999998C285.0000000000001 184.9999999999998 305.0000000000001 174.9999999999997 330.0000000000001 174.9999999999997C350.0000000000001 174.9999999999997 375.0000000000001 184.9999999999998 390.0000000000001 199.9999999999998L450.0000000000001 259.9999999999998C475.0000000000001 279.9999999999998 480.0000000000001 314.9999999999999 470.0000000000001 344.9999999999998zM340 605L195 750L250.0000000000001 805L395 660L340 605zM850 550L794.9999999999999 495C764.9999999999999 465 724.9999999999999 450 679.9999999999999 450C649.9999999999999 450 619.9999999999999 460 595 475L655 535C665 530 675 530 685 530C705.0000000000001 530 730.0000000000001 540 745.0000000000001 555L800.0000000000001 610C835.0000000000002 645 835.0000000000002 695 800.0000000000001 730L730.0000000000002 805C715.0000000000002 820 695.0000000000002 830 670.0000000000001 830S620.0000000000001 810 600.0000000000001 795L550 740C535 725 525 700 525 680C525 670 525 660 530 650L470.0000000000001 595C455 620 445 650 445 680C445 725 460 765 490 795L550 850C580.0000000000001 880 620.0000000000001 900 660 900S745 885 775 855L850 780C909.9999999999998 715 909.9999999999998 610 850 550zM660 395L805 250L750 195L605 340L660 395z" />
    <glyph glyph-name="unlock"
      unicode="&#xF13D;"
      horiz-adv-x="1000" d=" M850 455V174.9999999999999C850 119.9999999999999 804.9999999999999 75 750 75H250C195 75 150 120 150 174.9999999999999V455C150 504.9999999999999 190 550 240 555L225 585C175 720 245 865 380 915C445 940 515 935 575 905S684.9999999999999 825 710 760L725 715L650 690L635 735C620 780 585 815 540 835C500 855 450.0000000000001 855 405 840S325 790 305.0000000000001 745S285.0000000000001 655 300.0000000000001 610L350.0000000000001 475H250C235 475 225 465 225 450V169.9999999999999C225 159.9999999999999 235.0000000000001 149.9999999999999 250 149.9999999999999H750C765 149.9999999999999 775 159.9999999999999 775 174.9999999999999V455C775 470 765 480 750 480H415L385 555H750C805 555 850 510 850 455zM460 210V270C440 285 430.0000000000001 305 430.0000000000001 330.0000000000001C430.0000000000001 370.0000000000001 460.0000000000001 400.0000000000001 500 400.0000000000001S570.0000000000001 370.0000000000001 570.0000000000001 330.0000000000001C570.0000000000001 305 560 285 540 270V210H460z" />
    <glyph glyph-name="up-arrow"
      unicode="&#xF13E;"
      horiz-adv-x="1000" d=" M855 440L540 755V95H460V755L145 440L90 495L500 905L909.9999999999998 495L854.9999999999999 440z" />
    <glyph glyph-name="upload"
      unicode="&#xF13F;"
      horiz-adv-x="1000" d=" M885 415V180H115V415H195V260H804.9999999999999V415H884.9999999999999zM325 535L270 590L500 820L730 590L674.9999999999999 535L539.9999999999999 670V355H459.9999999999999V670L324.9999999999999 535z" />
    <glyph glyph-name="user"
      unicode="&#xF140;"
      horiz-adv-x="1000" d=" M95 60L100 145C115 305 260 395 500 395S880 305 900 145L905 65.0000000000001H825.0000000000001L820.0000000000001 140C805 285 640.0000000000001 320.0000000000001 500 320.0000000000001S195 290 180 140.0000000000001L175 65.0000000000001H95zM280 715C280 835 380 935 500 935S720 835 720 715C720 565 625 450 500 450S280 565 280 715zM355 715C355 610 415 525 500 525S645 605 645 715C645 790 580.0000000000001 860 500 860S355 795 355 715z" />
    <glyph glyph-name="view"
      unicode="&#xF141;"
      horiz-adv-x="1000" d=" M940 500C940 390 735 169.9999999999999 499.9999999999999 169.9999999999999S59.9999999999999 389.9999999999999 59.9999999999999 500S264.9999999999999 830 499.9999999999999 830S940 610 940 500zM860 500C860 550 705 750 500 750S140 550 140 500S300.0000000000001 250 500 250S860 450 860 500zM665 585C680 560 685 530 685 500C685 395 600.0000000000001 310 495.0000000000001 310S310.0000000000001 395 310.0000000000001 500.0000000000001S395.0000000000001 690 500 690V610C440 610 390 560 390 500.0000000000001S440 390 500 390S610 440.0000000000001 610 500C610 520 605 535 600 550L665 585z" />
    <glyph glyph-name="warning"
      unicode="&#xF142;"
      horiz-adv-x="1000" d=" M985 35H35L510 965.0000000000002L985 35zM175 120H840.0000000000001L510 775L175 120zM550 585V480L535 340H485.0000000000001L470.0000000000001 480V585H550zM465 295H550V210.0000000000001H465V295z" />
    <glyph glyph-name="zoom-in"
      unicode="&#xF143;"
      horiz-adv-x="1000" d=" M835 110L630 315C575 269.9999999999999 505 250 435 250C350 250 270 285 210 345S115 485 115 570S150 735 210 795C270 855 350 890 435 890S600 855 660 795C715.0000000000001 735 750 655 750 570C750 500 725 429.9999999999999 679.9999999999999 375L884.9999999999999 170L834.9999999999999 110.0000000000001zM430 330C495 330 554.9999999999999 355 600 399.9999999999999S669.9999999999999 504.9999999999999 669.9999999999999 570S644.9999999999999 695 599.9999999999999 740C554.9999999999998 785 494.9999999999999 810 429.9999999999999 810S304.9999999999999 785 259.9999999999998 740C214.9999999999998 695 189.9999999999998 635 189.9999999999998 570S214.9999999999998 445 259.9999999999998 399.9999999999999C304.9999999999998 354.9999999999999 364.9999999999998 329.9999999999999 429.9999999999999 329.9999999999999zM470 610H580V530H470V419.9999999999999H390V530H280V610H390V720H470V610z" />
    <glyph glyph-name="zoom-out"
      unicode="&#xF144;"
      horiz-adv-x="1000" d=" M835 110L630 315C570.0000000000001 274.9999999999999 500 250 430 250C345 250 265 285 205 345S110 485 110 570S145 735 205 795C265 855 345 890 430 890S595 855 655 795S750 655 750 570C750 500 725 429.9999999999999 679.9999999999999 375L884.9999999999999 170L834.9999999999999 110.0000000000001zM430 330C495 330 554.9999999999999 355 600 399.9999999999999S669.9999999999999 504.9999999999999 669.9999999999999 570C669.9999999999999 635 644.9999999999999 695 599.9999999999999 740S494.9999999999999 810 429.9999999999999 810C364.9999999999999 810 304.9999999999999 785 259.9999999999998 740S189.9999999999998 635 189.9999999999998 570C189.9999999999998 504.9999999999999 214.9999999999998 445 259.9999999999998 399.9999999999999S364.9999999999998 329.9999999999999 429.9999999999999 329.9999999999999zM280 610H575V530H280V610z" />
    <glyph glyph-name="zzinfo"
      unicode="&#xF145;"
      horiz-adv-x="1000" d=" M500 1000C224 1000 0 776 0 500C0 224 224 0 500 0C776 0 1000 224 1000 500C1000 776 776 1000 500 1000zM562 188H436V542H562V188zM500 646C454 646 416 684 416 730C416 776 454 814 500 814C546 814 584 776 584 730C584 682 546 646 500 646z" />
  </font>
</defs>
</svg>
